<?xml version="1.0"?>
<!--Icons from directory ""-->
<svg xmlns="http://www.w3.org/2000/svg" width="32" height="608" viewBox="0 0 32 608"><svg viewBox="0 0 76.165 118.741" width="32" height="32" id="bathrobes" y="0"><path d="M56.176 59.35c-19.219 1.679-33.777.73-38.402-.976-.092.201-.554 1.99-.554 1.99-7.5 11.67-1.975 55.47-1.975 55.47 20.143 6.354 43.425.31 43.425.31s1.662-17.837 1.662-29.23c0-9.911-3.637-25.197-3.637-25.197a6.254 6.254 0 0 1-.519-2.367zm12.227-45.085C63.009 8.301 53.68 8.448 53.68 8.448 53.409 1.031 41.303 0 36.614 0c-4.688 0-11.695 1.999-13.207 3.76-1.229 1.432-2.187 4.023-2.252 4.081l-2.535.607C4.785 10.584 3.813 23.014 3.813 23.014S1.609 44.508.661 51.887C-.287 59.265.064 76.886.064 76.886c4.807 1.202 10.222 0 10.222 0s.297 1.448.442-2.75c.142-4.198.972-10.797.972-10.797 2.366-11.501 1.68-22.719 1.68-22.719.95 2.658 4.034 12.364 4.034 12.364 1.211 1.158 1.402 2.174 1.32 2.898 0 0 29.998 2.492 38.583-.32l.376-2.066c-.076-4.988 4.668-12.048 4.668-12.048-.597 5.034 1.808 21.664 2.263 24.364.453 2.7 1.047 11.107 1.047 11.107 4.122 1.516 10.222 0 10.222 0l.272-5.539c0-.001-2.368-51.152-7.762-57.115zm-18.525-2.943s-.233 6.357-7.429 16.09C38.262 33.076 32.477 43.99 29.6 51.457c-.533 1.382-.95 4.093-2.062 4.093h-.004c-.905 0-.783-1.893-.785-2.826-.02-11.674 3.556-21.761 5.354-25.618l4.648-8.714c.814-1.38 7.044-10.629 4.601-11.536-4.961-1.841-9.815.025-9.815.025-1.146.515-.487 3.956 1.713 6.334 1.101 1.189.147 2.926.147 2.926l-2.379 4.466s-.996 1.924-2.355.098c-3.729-5.012-4.687-10.37-4.579-9.889 0 0-1.646-6.205 6.67-8.273 0 0 13.257-2.825 17.941 3.127 0 .001 1.647 1.617 1.183 5.652z" fill="#59595c"/></svg><svg viewBox="0 0 118.902 84.223" width="32" height="32" id="bathtub" y="32"><path d="M4.955 49.541c0 9.197 5.019 17.205 12.46 21.481l-6.331 6.329a4.034 4.034 0 0 0 0 5.692 4.014 4.014 0 0 0 2.85 1.18 4.014 4.014 0 0 0 2.845-1.18l9.06-9.063c1.272.203 2.562.335 3.885.335h59.451c1.325 0 2.613-.132 3.886-.335l9.061 9.063a4.014 4.014 0 0 0 2.85 1.18 4.013 4.013 0 0 0 2.845-1.18 4.034 4.034 0 0 0 0-5.692l-6.331-6.329c7.442-4.276 12.46-12.284 12.46-21.481v-9.907H4.955v9.907zm108.992-22.293H17.34V14.863c0-5.768 4.082-8.052 7.43-8.052a8.048 8.048 0 0 1 8.049 8.052h6.817C39.636 6.653 32.981 0 24.771 0 16.566 0 9.905 6.653 9.905 14.863v12.385h-4.95A4.952 4.952 0 0 0 0 32.203v2.475h118.902v-2.475a4.952 4.952 0 0 0-4.955-4.955z" fill="#595858"/></svg><svg viewBox="0 0 109.648 118.516" width="32" height="32" id="beach-pool-facilities" y="64"><path d="M84.25 16.133a80.608 80.608 0 0 0-3.114-2.45l-.007.001-.001-.004a75.553 75.553 0 0 0-3.255-2.252C54.135-4.104 24.056-3.466 1.303 11.289c-1.618 1.056-1.768 3.424-.232 4.612l.099.074c.232.164.463.328.688.497 9.464 6.978 14.594 17.636 14.9 28.543.007.335.028.671.027 1.01a2.7 2.7 0 0 0 1.103 2.168l.024.015c.539.394 1.22.601 1.941.54.11-.009.227-.013.329-.02a43.055 43.055 0 0 1 24.611 5.488L27.914 77.108l-24.425 33.13a5.195 5.195 0 0 0 1.098 7.261 5.187 5.187 0 0 0 7.262-1.098l21.344-28.949 19.96-27.071a43.048 43.048 0 0 1 12.521 21.881c.016.108.049.217.078.323a2.876 2.876 0 0 0 1.099 1.707 2.7 2.7 0 0 0 2.409.417c.323-.1.645-.178.97-.268 10.51-2.932 22.206-1.185 31.671 5.792.232.167.457.341.683.513l.051.043c1.561 1.151 3.825.414 4.352-1.462 7.425-26.118-.852-55.098-22.737-73.194zm-3.555 10.193c1.5 18.015-3.668 33.795-8.459 44.105a53.107 53.107 0 0 0-17.14-21.444 53.123 53.123 0 0 0-25.57-10.034c8.429-7.622 21.972-17.226 39.654-21.117a74.206 74.206 0 0 1 9.996-1.5 75.288 75.288 0 0 1 1.519 9.99z" fill="#595858"/></svg><svg viewBox="0 0 92.074 118.191" width="32" height="32" id="beach" y="96"><path d="M41.783 94.596c-10.564 0-18.73 2.202-22.333 3.491-9.473 3.235-16.487 8.457-19.133 14.62-1.117 2.596.875 5.484 3.708 5.484h75.521c2.827 0 4.83-2.888 3.713-5.484-4.468-10.388-21.342-18.111-41.476-18.111zm49.746-59.872a20.553 20.553 0 0 0-1.031-3.245c-.472-1.182-1.036-2.485-1.866-3.848a31.82 31.82 0 0 0-1.267-2.003 49.554 49.554 0 0 0-1.631-2.068c-.513-.664-1.157-1.278-1.776-1.871l-.196-.187a34.242 34.242 0 0 0-1.061-.986c-.036-.03-.065-.055-.106-.086-.382-.307-.78-.619-1.193-.921l-.282-.211c-.307-.227-.619-.458-.941-.679-.413-.272-.83-.518-1.252-.765l-.181-.106-1.368-.76-.151-.075c-.372-.176-.75-.337-1.137-.503l-.378-.161c-1.907-.835-4.186-1.429-6.746-1.776-.201-.277-.438-.529-.75-.709a17.001 17.001 0 0 0-2.315-1.147 21.627 21.627 0 0 0-1.6-.604 35.472 35.472 0 0 0-1.851-.493c-.599-.161-1.273-.241-1.872-.312l-.181-.02a22.037 22.037 0 0 0-1.042-.111c-.045 0-.086-.005-.131-.005-.357-.01-.724-.015-1.092-.01h-.242c-.281 0-.558.005-.845.015-.362.02-.724.065-1.082.106l-.141.02-.498.065c-.02-.05-.04-.111-.06-.161l-.121-.241c-.13-.272-.266-.544-.402-.805-.03-.05-.055-.095-.091-.146l-.563-.906-.104-.159a16.5 16.5 0 0 0-.599-.88c-.186-.242-.367-.463-.543-.68l-.156-.191a36.379 36.379 0 0 0-.709-.825.8.8 0 0 0-.091-.096 34.494 34.494 0 0 0-.755-.735L51 5.318c-.438-.407-.936-.875-1.509-1.283a33.523 33.523 0 0 0-1.419-1.011 23.28 23.28 0 0 0-1.615-.906c-.991-.543-2.003-.915-2.853-1.207a15.298 15.298 0 0 0-2.445-.639C39.856.026 38.975.005 38.88 0a2.522 2.522 0 0 0-1.992.931c-.272.337-.422.734-.493 1.152a19.716 19.716 0 0 0-2.123-.715l-.382-.111c-.398-.11-.8-.221-1.193-.317-.055-.015-.115-.025-.171-.035L32.133.84 31.026.649 30.78.614a21.267 21.267 0 0 0-1.434-.186c-.412-.03-.8-.045-1.182-.06l-.357-.015c-.503-.02-1.006-.025-1.504-.03-.045 0-.091.005-.091.005a29.66 29.66 0 0 0-1.494.106l-.262.02c-.855.08-1.741.156-2.636.367-.422.086-.915.191-1.388.302-.342.08-.68.166-1.011.251-.498.146-.891.277-1.273.407-.377.131-.744.271-1.102.408-1.454.523-2.707 1.187-3.839 1.826a20.902 20.902 0 0 0-2.847 1.901C8.92 7.029 8.125 7.879 8.034 7.974a2.506 2.506 0 0 0 .644 3.895c.04.025 1.087.593 2.727 1.248l1.575.614 1.122.433.322.121.136.045a2.491 2.491 0 0 0 1.646.03l.201-.065c.352-.111.88-.266 1.509-.413l.312-.07a5.5 5.5 0 0 1 .413-.091c-.015.111-.02.226-.015.342.025 1.026.639 1.947 1.605 2.304l.251.09c.186.071.372.141.558.207.378.111.659.231.936.342.277.115.558.226.84.327.236.095.533.201.83.301h.005c.286.131.573.257.86.372l.216.086c.141.06.277.111.418.166-1.575.01-3.235.196-5.056.624-.639.151-1.273.322-1.897.508-.04.015-.076.025-.116.04-2.54.895-4.724 1.992-6.485 3.26l-.327.226c-.342.242-.68.478-1.002.725-.045.035-.09.07-.131.11l-.709.619-.432.382-.191.166c-.363.327-.725.659-1.052.996-.281.297-.538.588-.79.88l-.241.266c-.332.378-.654.765-.971 1.147-.025.035-.056.071-.08.106-.287.397-.569.795-.836 1.192l-.146.212c-.483.714-.981 1.449-1.388 2.279a43.918 43.918 0 0 0-1.082 2.209 29.246 29.246 0 0 0-.87 2.355C.83 38.019.553 39.413.332 40.69a20.863 20.863 0 0 0-.322 3.407c-.05 1.821.106 2.978.126 3.104a2.486 2.486 0 0 0 1.233 1.816 2.497 2.497 0 0 0 2.189.147c.05-.02 1.147-.468 2.696-1.328l.654-.372 1.856-1.052.292-.176.126-.075a2.5 2.5 0 0 0 1.061-1.258l.076-.201c.186-.458.443-1.051.775-1.711.065-.126.131-.251.191-.377.08.08.166.156.257.226.684.529 1.58.689 2.369.413.151-.05.292-.121.433-.201l.227-.135c.176-.101.347-.201.518-.307.322-.216.594-.362.855-.503.266-.146.528-.292.785-.448.221-.126.488-.286.76-.453v-.005c.282-.141.558-.282.83-.433l.206-.111c.236-.126.478-.257.705-.397.015-.01.1-.041.181-.081a9.43 9.43 0 0 0 .508-.241c.342-.181.724-.488.951-.8l.116-.156c.121-.171.242-.342.367-.508a2.5 2.5 0 0 0 1.761.04l.035-.01.382-.141.689-.257c.277-.076.549-.156.82-.237.422-.126.84-.251 1.268-.352a7.86 7.86 0 0 1 .558-.111c.895-.161 1.71-.302 2.551-.372.211-.02.413-.065.614-.136.207-.071.403-.171.584-.292.362.206.775.322 1.197.317.407 0 .815-.005 1.233.015 1.253.03 2.47.141 3.396.237.825.076 1.6.176 2.339.277l-.684.936-.488.674c-.161.232-.297.413-.437.599-.312.418-.659.891-.996 1.444l-.115.186-1.198 1.912c-.322.534-.654 1.057-.986 1.585-.669 1.061-1.363 2.158-2.042 3.361l-1.243 2.35-1.761 3.34c-.694 1.439-1.313 2.863-1.911 4.236a157.27 157.27 0 0 1-.946 2.153c-.629 1.56-1.167 3.084-1.686 4.558-.262.755-.528 1.509-.805 2.264l-.045.131c-.232.77-.448 1.55-.664 2.33l-.322 1.147c-.116.443-.222.815-.332 1.193-.226.79-.463 1.605-.619 2.485-.116.558-.242 1.162-.372 1.761-.357 1.695-.729 3.447-.926 5.212l-.151 1.067c-.11.759-.216 1.504-.292 2.249l-.161 2.007-.098 1.235c-.096.961-.111 1.912-.126 2.832l-.005.347c-.005.358-.01.68-.02 1.002a32.905 32.905 0 0 0 0 1.987l.001.044c2.995-1.013 7.405-2.209 13.274-2.93l-.013-.284-.015-.337c-.04-.735-.071-1.429-.045-2.118l.035-2.933c.02-.523.071-1.117.116-1.721.03-.377.06-.76.086-1.142.06-1.388.262-2.772.473-4.241.091-.619.181-1.243.262-1.872.065-.604.201-1.197.337-1.826.091-.408.186-.82.262-1.232l.236-1.132c.136-.639.266-1.272.413-1.912.221-.759.437-1.524.654-2.289.378-1.353.735-2.626 1.147-3.879.257-.674.528-1.434.799-2.188a94.926 94.926 0 0 1 1.374-3.678l.257-.573 2.163-4.835c.478-.996 1.031-2.008 1.565-2.989.312-.568.614-1.122.895-1.66l.654-1.218.473-.88c.206-.408.422-.735.634-1.051.151-.237.302-.468.438-.699l.151-.237 1.716-2.707.352-.553.579.387.549.372c.659.453 1.358.931 2.052 1.454a45.678 45.678 0 0 1 2.667 2.083c.357.297.659.573.961.845.317.297.7.493 1.112.589.101.408.302.79.599 1.101.573.614 1.081 1.268 1.6 1.937.402.493.735 1.042 1.086 1.615.146.242.297.483.448.724l.352.669.181.342c.292.558.779.976 1.348 1.182-.02.231-.04.428-.065.624l-.02.191c-.045.393.005.79.146 1.162.091.246.166.417.242.594.035.08.075.161.1.247.06.186.146.443.236.699l.086.236c.091.277.201.569.317.855l.005.01c.086.307.176.614.282.915.06.216.156.498.257.785.1.286.206.568.277.865.08.277.136.468.196.654l.08.257a2.506 2.506 0 0 0 2.204 1.756c.115.01.236.01.352.005-.035.115-.065.231-.095.342a23.083 23.083 0 0 1-.594 1.856l-.045.111c-.201.529-.241 1.157-.075 1.695l.045.136.095.322.906 2.727c.584 1.695 1.097 2.767 1.117 2.812a2.51 2.51 0 0 0 1.726 1.363 2.538 2.538 0 0 0 2.138-.523c.096-.086.986-.84 2.194-2.254a20.909 20.909 0 0 0 2.028-2.737c.684-1.077 1.414-2.294 2.027-3.763.242-.549.578-1.338.886-2.199.271-.865.503-1.685.719-2.536.236-.81.358-1.685.478-2.54l.035-.262c.065-.468.126-.951.176-1.439.005-.045.01-.091.01-.136.02-.493.045-.996.045-1.504l.005-.352c.005-.387.01-.775 0-1.162-.015-.493-.065-.976-.115-1.464l-.02-.207-.181-1.554a1.956 1.956 0 0 0-.025-.171 29.2 29.2 0 0 0-.261-1.208l-.091-.402c-.453-2.108-1.338-4.382-2.626-6.752-1.55-2.545-3.099-4.457-4.799-5.941a24.371 24.371 0 0 0-3.069-2.345l.02-.01c.201-.071.392-.166.568-.287.176.151.322.287.468.418l.146.131c.292.266.639.457 1.016.558.262.075.448.115.629.156.091.02.176.036.262.061.186.065.443.146.704.221l.242.071c.282.086.584.166.886.242l.005.005c.297.106.599.211.911.307.206.076.493.161.785.247.292.086.584.171.86.282.272.1.458.166.649.226l.251.08a2.475 2.475 0 0 0 1.63-.005 2.513 2.513 0 0 0 1.293-1.031c.076.09.151.186.227.277.483.599.855 1.127 1.157 1.57l.07.11c.307.473.785.86 1.323 1.042l.135.05.317.106.654.206 2.088.654c1.71.523 2.883.734 2.933.744.428.075.865.035 1.268-.1.307-.111.599-.277.845-.503.573-.513.88-1.268.825-2.037-.016-.124-.106-1.292-.544-3.098z" fill="#595858"/></svg><svg viewBox="0 0 102.781 118.664" width="32" height="32" id="business-center" y="128"><path d="M42.371 55.488l9.726 7.429 8.602-7.429c-5.474-2.122-18.328 0-18.328 0zm9.02-6.041c13.657 0 24.728-11.064 24.728-24.721C76.119 11.068 65.048 0 51.391 0c-13.657 0-24.72 11.068-24.72 24.727 0 13.656 11.063 24.72 24.72 24.72zm16.576 7.502c-1.182-.301-9.706 7.372-10.848 9.203 0 0 3.016 3.494 3.023 3.557l3.028 30.26c.011.115-10.317 8.324-10.317 8.324a.452.452 0 0 1-.299.128.425.425 0 0 1-.299-.128l-10.091-7.294c-.085-.085 3.206-31.219 3.249-31.271l2.768-3.594c-1.131-1.818-12.797-9.344-14.104-8.994C14.223 62.465 0 77.137 0 98.381c0 27.043 102.781 27.043 102.781 0 0-21.506-14.571-36.276-34.814-41.432zm-17.74 16.147l-2.045 24.786 4.079 5.36 4.858-4.904-2.812-25.509-1.656-4.897-2.424 5.164z" fill="#595858"/></svg><svg viewBox="0 0 118.807 108.73" width="32" height="32" id="children-club" y="160"><path d="M50.901 57.867H3.004A3.013 3.013 0 0 0 0 60.871v44.279a3.013 3.013 0 0 0 3.004 3.004H50.9a3.013 3.013 0 0 0 3.004-3.004V60.871a3.012 3.012 0 0 0-3.003-3.004zm-15.319 38.69h-1.075a2.004 2.004 0 0 1-1.909-1.395l-1.557-4.877a2.004 2.004 0 0 0-1.909-1.395h-5.638c-.883 0-1.661.577-1.918 1.422l-1.464 4.823a2.003 2.003 0 0 1-1.918 1.422h-.865a2.005 2.005 0 0 1-1.909-2.616l7.386-23.045a2.004 2.004 0 0 1 1.909-1.393h3.382c.868 0 1.638.559 1.906 1.385l7.486 23.045a2.006 2.006 0 0 1-1.907 2.624zm-7.958-18.063c-.52-1.644-.961-3.491-1.363-5.056h-.082c-.402 1.565-.801 3.451-1.284 5.056l-1.27 4.06a2.004 2.004 0 0 0 1.913 2.603h1.47a2.004 2.004 0 0 0 1.909-2.614l-1.293-4.049zm26.159-60.4a33.287 33.287 0 0 0-.859-.118 2 2 0 0 0-2.22 1.693l-.531 3.526a2.003 2.003 0 0 0 1.684 2.28l.519.078c3.374.508 5.516-.793 5.857-3.058.376-2.498-1.354-3.935-4.45-4.401zm-2.025 11.018l-.439-.066a2.004 2.004 0 0 0-2.28 1.684l-.735 4.883a1.997 1.997 0 0 0 1.634 2.272c.205.034.421.068.649.103 3.135.472 6.09-.303 6.586-3.597.467-3.095-2.041-4.771-5.415-5.279zm66.997 67.164l-8.22-43.509a3.013 3.013 0 0 0-3.51-2.394l-31.048 5.866a2.99 2.99 0 0 0 1.44-2.134l6.328-43.824a3.014 3.014 0 0 0-2.544-3.403L33.796.031a3.014 3.014 0 0 0-3.403 2.544l-6.328 43.824a3.014 3.014 0 0 0 2.544 3.403l47.287 6.829-13.935 2.633a3.013 3.013 0 0 0-2.394 3.51l8.22 43.509a3.013 3.013 0 0 0 3.51 2.394l47.064-8.892a3.012 3.012 0 0 0 2.394-3.509zM63.238 22.683c-.37 2.459-2.258 4.489-5.315 5.126l-.012.078c2.711 1.138 4.955 3.75 4.4 7.441-.359 2.382-1.67 4.091-3.409 5.129-2.157 1.381-5.418 1.743-10.301 1.008a51.24 51.24 0 0 1-4.141-.792 2.006 2.006 0 0 1-1.528-2.251l3.435-22.826a2.01 2.01 0 0 1 2.066-1.705c1.548.055 3.49.231 5.377.515 3.613.543 5.771 1.315 7.406 2.859 1.514 1.24 2.363 3.156 2.022 5.418zm35.99 68.15c-1.227.599-2.914 1.206-4.915 1.636-8.396 1.807-14.631-2.355-16.361-10.4-1.874-8.71 3.036-15.268 11.12-17.008 1.861-.401 3.461-.506 4.688-.464 1.111.038 1.961 1.007 1.897 2.117l-.006.101a1.989 1.989 0 0 1-2.049 1.885 14.082 14.082 0 0 0-3.471.321c-5.377 1.157-8.536 5.366-7.168 11.725 1.249 5.806 5.467 8.799 11.273 7.55a16.153 16.153 0 0 0 3.258-1.078 2.009 2.009 0 0 1 2.688 1.002c.434.987.015 2.14-.954 2.613z" fill="#595858"/></svg><svg viewBox="0 0 117.551 108.693" width="32" height="32" id="coffe-maker" y="192"><path d="M88.131 11.944l-1.421-.958h-8.883c1.201-.601 2.04-1.828 2.04-3.261V3.661A3.663 3.663 0 0 0 76.2 0H11.343a3.662 3.662 0 0 0-3.662 3.661v.507c0 3.818 2.985 6.949 6.741 7.193-2.128.801-3.65 2.841-3.65 5.251a5.62 5.62 0 0 0 5.621 5.621h66.848c14.473 10.297 23.06 26.053 23.06 42.466a5.623 5.623 0 0 0 5.629 5.621 5.62 5.62 0 0 0 5.62-5.621c.001-20.681-10.997-40.399-29.419-52.755zM75.874 27.699H15.7a3.675 3.675 0 0 0-2.786 1.283C4.589 38.729 0 51.592 0 65.188c0 17.015 7.343 32.977 19.637 42.717a3.672 3.672 0 0 0 2.272.789h47.756c.826 0 1.628-.275 2.279-.789 12.288-9.74 19.631-25.702 19.631-42.717 0-13.596-4.588-26.459-12.914-36.206a3.67 3.67 0 0 0-2.787-1.283zM9.245 56.807c1.277-7.624 4.269-14.691 8.782-20.563h55.524c4.507 5.872 7.505 12.939 8.776 20.563H9.245z" fill="#595858"/></svg><svg viewBox="0 0 119.695 104.324" width="32" height="32" id="deep-soaking-bathtub" y="224"><path d="M89.706 29.306c6.913-.016 12.328-5.392 12.359-12.267.03-6.844-5.339-12.335-12.195-12.47-6.746-.134-12.495 5.376-12.608 12.081-.117 7.04 5.42 12.672 12.444 12.656zm12.027 22.017c1.099-6.925-.353-13.371-6.198-16.429-4.607-2.411-9.458-2.129-13.623 1.219-4.915 3.951-5.377 9.287-4.181 15.21h24.002zM47.048 30.876c-2.722 6.97-.245 12.316 6.636 15.797-4.663-9.082-1.222-16.018 4.563-22.72 2.323-2.691 4.036-6.153 5.196-9.547C65.426 8.6 63.852 3.491 59.102 0c3.34 8.565.085 14.361-4.96 19.963-2.88 3.199-5.545 6.942-7.094 10.913zm72.627 18.497c-.001-.993-.13-1.986-.212-3.161h-8.804v5.093c0 12.818-.096 25.637.062 38.454.043 3.546-1.069 5.152-4.736 5.145-30.792-.052-61.585-.047-92.377-.004-3.429.004-4.55-1.458-4.509-4.848.153-12.521.061-25.045.061-37.569v-6.207H.146v5.022c0 12.523.401 25.062-.122 37.564-.459 10.976 5.648 15.524 15.518 15.461 29.613-.192 59.228-.061 88.841-.089a30.982 30.982 0 0 0 5.255-.471c6.281-1.096 10.012-5.508 10.033-11.96.044-14.142.018-28.286.004-42.43zm-82.744-2.269c-5.85-10.124-5.058-16.281 2.992-24.953 2.19-2.358 4.466-4.808 5.926-7.619 1.071-2.063.874-4.785 1.236-7.179-4.083 4.582-7.683 8.469-11.1 12.509-2.633 3.113-5.704 6.103-7.403 9.705-3.578 7.586 1.045 16.667 8.349 17.537zm69.243 7.762H13.798V90.26h92.377V54.866z" fill="#595858"/></svg><svg viewBox="0 0 119.188 108.977" width="32" height="32" id="fitness-center" y="256"><path d="M58.86 21.186c-5.38.716-9.149 5.615-8.429 10.948.72 5.328 5.667 9.074 11.042 8.359 5.375-.711 9.154-5.615 8.43-10.943-.717-5.333-5.659-9.079-11.043-8.364zM112.398.939L107.15.101c-4.382-.696-8.561 2.287-9.272 6.637l-.969 5.977C63.92 5.194 32.165 9.971 22.14 11.854l-.828-5.116c-.71-4.349-4.886-7.333-9.272-6.637L6.791.939C2.409 1.645-.603 5.777.103 10.126l2.438 15c.706 4.354 4.881 7.338 9.263 6.632l5.252-.828c4.391-.711 7.399-4.843 6.693-9.192l-.508-3.106c1.652-.306 4.02-.711 6.938-1.125.626 8.387 3.309 19.904 12.016 36.584l8.712 15.038c-.536.635-14.308 21.208-16.172 36.043-.236 1.798 1.158 3.436 3.13 3.751.08.01.165.024.24.033 2.113.207 4.01-1.139 4.246-3.022 1.379-10.948 14.007-25.312 17.97-29.605 4.283 4.664 16.322 18.601 17.664 29.261.155 1.238 1.036 2.231 2.212 2.716.748.49 1.69.744 2.687.65.08-.01.16-.024.235-.033 1.977-.315 3.37-1.953 3.139-3.751-1.864-14.835-15.64-35.408-16.176-36.043l8.721-15.038c8.392-16.082 11.169-27.35 11.922-35.658 1.69.33 3.379.664 5.078 1.059l-.362 2.245c-.716 4.349 2.306 8.481 6.693 9.192l5.243.828c4.387.706 8.566-2.278 9.268-6.632l2.443-15c.704-4.348-2.308-8.48-6.69-9.186zM79.55 34.69c-2.998 4.513-7.069 8.255-12.369 9.352l-.348.094c-.009.01-.094.038-.216.076l-4.754.63c-.442.066-.885.104-1.322.127 0 0-.028.005-.042.005l-.052-.005a13.964 13.964 0 0 1-1.323-.127 3.671 3.671 0 0 0-.79-.009 48.43 48.43 0 0 1-3.125-.405c-.649-.16-1.045-.282-1.054-.292l-.344-.094c-12.223-2.546-15.659-18.944-16.619-26.78 14.304-2.071 27.967-2.005 38.924-1.266 2.847.221 5.695.522 8.509.894-.378 3.958-1.564 11.568-5.075 17.8z" fill="#5a5a5d"/></svg><svg viewBox="0 0 118.719 89.146" width="32" height="32" id="garden" y="288"><path d="M89.917 76.764c2.215-21.234 9.182-40.308 19.344-55.037-16.834 8.456-30.19 23.546-37.175 42.134C72.439 39.602 78.154 17.403 87.712 0 73.399 9.047 62.113 23.287 55.573 40.395c.792 2.932 1.944 7.748 2.996 14.265a1.929 1.929 0 0 1-3.809.615C50.524 29.04 27.177 21.392 27.177 21.392c3.8 12.69 6.032 26.711 6.321 41.479-5.85-13.786-19.132-25.038-31.573-31.824 5.077 9.312 9.36 20.577 12.478 33.475C7.038 54.363 0 51.762 0 51.762s15.186 14.273 16.851 37.384h85.016c1.289-16.909 8.907-25.612 16.851-37.831-12.315 5.272-22.448 14.265-28.801 25.449z" fill="#595858"/></svg><svg viewBox="0 0 64.858 116.556" width="32" height="32" id="kitchen-facilities" y="320"><path d="M60.952 0c-2.154 0-3.907 2.08-3.907 4.628v6.139H15.807v28.415L2.195 64.641c-3.349 6.267-2.804 13.406 1.218 15.875 3.647 2.232 8.943-.115 12.395-5.235v12.236c0 15.972 11.04 29.039 24.525 29.039 13.492 0 24.525-13.067 24.525-29.039V4.628C64.858 2.08 63.099 0 60.952 0zm2.439 10.767h-4.877V6.041c0-2.542 1.091-4.629 2.439-4.629 1.335 0 2.438 2.087 2.438 4.629v4.726z" fill="#595858"/></svg><svg viewBox="0 0 118.678 90.975" width="32" height="32" id="newspaper" y="352"><path d="M16.135 33.968L0 39.361s3.544 4.161 5.782 10.732c3.625 10.647 8.593 25.232 9.75 28.581 2.115 6.125 4.246 11.098 6.234 12.099 2.819 1.419 4.684-4.875 3.473-11.234-1.213-6.359-9.104-45.571-9.104-45.571zm102.384 21.601L107.932 0 17.216 17.283s11.208 58.852 12.297 64.545c.476 2.49.784 5.946-1.626 8.489 15.26-5.174 76.097-20.928 85.773-24.428 3.742-1.354 5.597-6.444 4.859-10.32zM28.483 24.784l74.148-14.263 1.423 8.817-73.751 15.395-1.82-9.949zm5.275 25.226l38.733-7.378.634 3.322-38.734 7.38-.633-3.324zm1.791 9.397l38.734-7.379.633 3.321-38.735 7.381-.632-3.323zM38.06 72.59l-.633-3.321 38.735-7.381.633 3.322-38.735 7.38zm44.522-8.482L78.28 41.529l28.902-5.507 4.302 22.58-28.902 5.506z" fill="#595858"/></svg><svg viewBox="0 0 112.9 119.037" width="32" height="32" id="nightclub" y="384"><path d="M11.935 98.775c-1.161-1.398-2.087-3.228-3.503-5.991-1.416 2.763-2.342 4.594-3.503 5.991-1.149 1.412-2.656 2.54-4.928 4.266 2.272 1.713 3.776 2.834 4.926 4.241 1.162 1.393 2.089 3.219 3.505 5.97 1.417-2.751 2.344-4.577 3.506-5.97 1.15-1.408 2.655-2.528 4.926-4.241-2.273-1.726-3.78-2.854-4.929-4.266zm28.3-1.047a139.8 139.8 0 0 1-11.057-2.165 139.764 139.764 0 0 1-5.91-1.547 42.102 42.102 0 0 0 19.937 20.754l-.022-.088a140.217 140.217 0 0 1-2.948-16.954zm33.911-42.355c-.275-1.339-.57-2.673-.887-4.002a132.692 132.692 0 0 0-4.791-15.658 40.225 40.225 0 0 0-4.008-.459V0h-5.514v35.247c-1.414.09-2.764.246-4.103.466a132.86 132.86 0 0 0-5.681 19.66 139.628 139.628 0 0 1 24.984 0zm-32.344.856c.41-2.175.87-4.341 1.383-6.494.946-3.97 2.069-7.899 3.36-11.773a42.082 42.082 0 0 0-23.276 22.213 138.608 138.608 0 0 1 18.533-3.946zm39.7 0a138.795 138.795 0 0 1 18.536 3.946A42.08 42.08 0 0 0 76.76 37.96a139.991 139.991 0 0 1 3.36 11.774c.512 2.154.972 4.32 1.382 6.495zM39.614 90.485a140.154 140.154 0 0 1-.246-8.276c0-6.242.421-12.483 1.252-18.669a132.797 132.797 0 0 0-9.807 1.948c-3.431.818-6.83 1.777-10.186 2.866a42.106 42.106 0 0 0-.915 8.743c0 2.998.317 5.921.915 8.741a132.915 132.915 0 0 0 10.186 2.866c2.912.693 5.849 1.285 8.801 1.781zm67.896-54.217c-1.271-1.529-2.283-3.531-3.833-6.554-1.549 3.023-2.562 5.025-3.832 6.554-1.257 1.545-2.906 2.778-5.391 4.666 2.485 1.874 4.131 3.1 5.389 4.639 1.271 1.524 2.285 3.521 3.835 6.531 1.55-3.009 2.564-5.007 3.835-6.531 1.258-1.539 2.904-2.765 5.389-4.639-2.487-1.888-4.135-3.122-5.392-4.666zm-15.02 29.22a132.797 132.797 0 0 0-9.807-1.948 140.26 140.26 0 0 1 1.252 18.669c0 2.76-.083 5.521-.246 8.276a132.166 132.166 0 0 0 8.8-1.782 132.438 132.438 0 0 0 10.19-2.867c.598-2.819.915-5.742.915-8.74s-.317-5.922-.915-8.741a132.54 132.54 0 0 0-10.189-2.867zm-9.422 32.24a139.957 139.957 0 0 1-2.949 16.954l-.022.09a42.101 42.101 0 0 0 19.941-20.756c-1.96.559-3.932 1.076-5.914 1.548-3.653.87-7.343 1.589-11.056 2.164zM61.652 61.864c-4.6 0-9.199.241-13.773.717a133.188 133.188 0 0 0-1.458 19.627c0 3.095.111 6.189.327 9.276 4.947.558 9.925.842 14.904.842 4.979 0 9.957-.284 14.904-.842.216-3.087.327-6.182.327-9.276 0-6.567-.49-13.133-1.458-19.627a133.106 133.106 0 0 0-13.773-.717zM47.446 98.655a133.085 133.085 0 0 0 2.598 14.391c.375 1.571.781 3.135 1.213 4.691 3.324.848 6.808 1.3 10.396 1.3 3.587 0 7.069-.451 10.393-1.299a130.69 130.69 0 0 0 3.811-19.083 140.12 140.12 0 0 1-14.206.724c-4.743 0-9.486-.243-14.205-.724z" fill="#59595c"/></svg><svg viewBox="0 0 118.457 108.293" width="32" height="32" id="restaurant" y="416"><path d="M36.33 78.49l-4.379-5.702L5.923 97.745a5.34 5.34 0 0 0-.145 7.652l1.081 1.105c2.103 2.141 5.604 2.197 7.794.132l26.044-24.963c-1.71-.68-3.248-1.759-4.367-3.181zm26.502-25.128c8.24 8.367 20.746 9.669 27.894 2.899l27.502-26.047-5.088-5.158-22.973 21.768-.038-.032c-.032.032-2.501 2.657-5.196 2.694-1.151.014-2.162-.446-3.244-1.527a2.417 2.417 0 0 1-.344-.307c-1.097-1.11-2.372-3.55 1.344-7.372l23.414-22.179-5.825-5.922-21.272 20.16-.021-.091-1.383 1.372c-2.039 1.993-3.91 2.993-5.578 2.974-1.302-.008-2.216-.659-2.748-1.197a8.447 8.447 0 0 1-.43-.524c-2.528-2.566-.952-5.387.747-7.259L93.448 5.023 88.359-.146 60.874 25.906c-3.485 3.308-5.191 7.993-4.787 13.224.393 5.158 2.797 10.209 6.745 14.232zM10.49 7.586c-1.883-1.929-4.754-2.012-6.68-.202-.215.215-.42.46-.619.726l-2.178 2.975c-1.71 2.329-1.646 5.954.151 8.232l41.519 54.06c1.813 2.289 5.406 3.039 7.998 1.689l2.598-1.361c1.77-.917 4.427-.497 5.809.917l31.337 31.869c2.109 2.152 5.605 2.208 7.794.143l1.13-1.076a5.345 5.345 0 0 0 .134-7.641L10.49 7.586z" fill="#595858"/></svg><svg viewBox="0 0 119.189 114.151" width="32" height="32" id="safety-box" y="448"><path d="M15.11 70.799V46.181H5.039v24.618H15.11zm5.041 15.864V77.85c0-1.638-1.954-3.021-4.265-3.021H4.265C1.954 74.829 0 76.212 0 77.85v8.814c0 1.638 1.954 3.022 4.265 3.022h11.621c2.311-.001 4.265-1.385 4.265-3.023zM4.265 42.153h11.621c2.312 0 4.265-1.384 4.265-3.022v-8.813c0-1.638-1.954-3.021-4.265-3.021H4.265C1.954 27.297 0 28.68 0 30.318v8.813c0 1.638 1.954 3.022 4.265 3.022zM100.214 0h-76.2C13.551 0 5.039 8.513 5.039 18.976v4.292H15.11v-4.292c0-4.91 3.994-8.903 8.903-8.903h76.201c4.909 0 8.902 3.993 8.902 8.903v76.201c0 4.909-3.993 8.902-8.902 8.902h-76.2c-4.909 0-8.903-3.993-8.903-8.902v-1.463H5.039v1.463c0 10.463 8.512 18.974 18.975 18.974h76.201c10.463 0 18.975-8.512 18.975-18.974V18.976C119.189 8.513 110.677 0 100.214 0zm3.529 68.238V48.856a3.68 3.68 0 1 0-7.361 0v19.383a3.68 3.68 0 1 0 7.361-.001zM88.635 56.457c0-15.708-12.779-28.486-28.486-28.486S31.664 40.75 31.664 56.457s12.778 28.485 28.485 28.485c15.707 0 28.486-12.778 28.486-28.485zM61.156 79.881l.001-6.545a16.55 16.55 0 0 0 11.089-4.982l4.484 4.669a23.38 23.38 0 0 1-15.574 6.858zm16.935-8.348l-4.53-4.717a16.512 16.512 0 0 0 3.374-9.352l6.637.001a23.329 23.329 0 0 1-5.481 14.068zm5.482-16.083h-6.668a16.51 16.51 0 0 0-2.855-8.095l4.852-4.959a23.317 23.317 0 0 1 4.671 13.054zM61.157 33.033c6.527.278 12.37 3.234 16.457 7.798l-4.823 4.931a16.55 16.55 0 0 0-11.634-5.582v-7.147zm-2.015 0V40.2a16.537 16.537 0 0 0-10.237 4.529l-5.004-5.156c3.993-3.843 9.336-6.289 15.241-6.54zM42.51 41.032l5.011 5.163a16.537 16.537 0 0 0-3.722 9.255h-7.073a23.346 23.346 0 0 1 5.784-14.418zm-5.784 16.432h7.043a16.528 16.528 0 0 0 3.805 9.915l-5.162 4.388a23.33 23.33 0 0 1-5.686-14.303zm22.416 22.417c-5.958-.253-11.345-2.74-15.348-6.643l5.171-4.397a16.538 16.538 0 0 0 10.177 4.475v6.565zm-.186-29.393v-4.833a1.61 1.61 0 1 1 3.22 0v4.833a1.61 1.61 0 1 1-3.22 0z" fill="#59595c"/></svg><svg viewBox="0 0 538.6 538.6" width="32" height="32" id="search" y="480"><path d="M349.8 262.4c-9.1 21.2-21.5 39.6-37.1 55.2s-33.9 28-54.9 37.1c-21 9.1-43.5 13.7-67.6 13.7-24.1 0-46.6-4.6-67.6-13.7-21-9.1-39.3-21.5-54.9-37.1s-28-34-37.1-55.2c-9.1-21.2-13.7-43.6-13.7-67.4 0-24.1 4.6-46.6 13.7-67.6 9.1-21 21.5-39.3 37.1-54.9s33.9-28 54.9-37.1c21-9.1 43.5-13.7 67.6-13.7 24.1 0 46.6 4.6 67.6 13.7 21 9.1 39.3 21.5 54.9 37.1s28 33.9 37.1 54.9c9.1 21 13.7 43.5 13.7 67.6 0 23.8-4.6 46.3-13.7 67.4zm-159.7 65.5c18.2 0 35.4-3.5 51.5-10.5s30.2-16.5 42.2-28.6c12-12 21.6-26.1 28.6-42.2s10.5-33.3 10.5-51.5c0-18.6-3.5-35.9-10.5-52s-16.5-30.1-28.6-42c-12-11.9-26.1-21.3-42.2-28.3s-33.3-10.5-51.5-10.5c-18.2 0-35.4 3.5-51.5 10.5s-30.2 16.4-42.2 28.3c-12 11.9-21.6 25.9-28.6 42s-10.5 33.4-10.5 52c0 18.2 3.5 35.4 10.5 51.5s16.5 30.2 28.6 42.2c12 12 26.1 21.6 42.2 28.6s33.3 10.5 51.5 10.5zm315.5 111.3c7.5 7.5 11.2 16.6 11.2 27.3s-3.7 19.7-11.2 26.9l-11.2 11.2c-7.5 7.5-16.5 11.2-27.1 11.2-10.6 0-19.6-3.7-27.1-11.2L303.9 367.9c13-8.5 24.9-18.3 35.6-29.5s20-23.5 27.8-36.9l138.3 137.7z"/></svg><svg viewBox="0 0 84.371 119.5" width="32" height="32" id="separate-bredroom" y="512"><path d="M72.532 8.609H11.839c-2.232 0-4.058 2.435-4.058 5.411V119.5H76.59V14.02c0-2.976-1.826-5.411-4.058-5.411zm-50.966 58.96a4.637 4.637 0 1 1-.002-9.274 4.637 4.637 0 0 1 .002 9.274zM78.452 0H5.918C2.654 0 0 3.061 0 6.824V119.5h2.137V6.824c0-2.584 1.694-4.687 3.781-4.687h72.534c2.087 0 3.781 2.104 3.781 4.687V119.5h2.137V6.824C84.371 3.061 81.716 0 78.452 0z" fill="#595858"/></svg><svg viewBox="0 0 118.67 81.124" width="32" height="32" id="sheets" y="544"><path d="M118.585 28.36V16.03s-13.505 1.866-32.198 35.456h-55.34c-1.022-1.482-2.691-4.47-2.691-8.305 0-4.416 1.569-7.084 2.518-8.305h36.904c8.174 7.663 14.787 13.99 14.787 13.99s8.469-16.585 19.915-26.428c11.182-9.614 16.106-11.325 16.106-11.325s0-5.74-4.137-5.904c-4.812-.191-85.64-5.182-85.64-5.182s-11.546-.722-13.687 5.24l-2.213.001C12.78 5.287 0 7.182 0 20.505c0 5.8 2.329 9.37 5.09 11.507C2.378 34.274 0 37.885 0 43.628c0 5.8 2.329 9.37 5.09 11.507C2.378 57.397 0 61.009 0 66.752c0 11.46 9.074 14.257 12.651 14.372h106.02V28.36h-.086zM13.573 58h9.841c-.888 2.137-1.574 4.888-1.574 8.307 0 3.483.754 6.227 1.642 8.309l-10.621.001c-1.061-.072-6.344-.789-6.344-7.865 0-6.897 5.536-8.455 7.056-8.752zm-.22-23.123h10.061c-.888 2.137-1.574 4.887-1.574 8.305 0 3.278.809 6.077 1.787 8.305h-8.122l-.423.005h-2.255c-1.052-.065-6.311-.743-6.311-7.862.001-7.195 6.025-8.581 6.837-8.753zm84.249 28.809s7.052 7.154 14.239 1.916c.121-.088.201-.169.318-.257v9.262l-81.117.008c-1.03-1.482-2.685-4.447-2.685-8.308 0-4.418 1.569-7.087 2.518-8.307h61.128l5.599 5.686zm-66.73-51.931H42.3c4.645 3.898 11.613 10.228 18.494 16.607l-29.744.003c-1.022-1.481-2.693-4.471-2.693-8.308-.001-4.417 1.571-7.087 2.515-8.302zm-7.459 0c-.888 2.137-1.573 4.885-1.573 8.302 0 3.28.81 6.08 1.789 8.308l-10.787.001c-1.057-.069-6.325-.77-6.325-7.862 0-6.928 5.532-8.46 7.052-8.749h9.844z" fill="#59595c"/></svg><svg viewBox="0 0 538.6 538.6" width="32" height="32" id="star" y="576"><path d="M501.2 218.5c0 2-.7 4.1-2 6.3-1.3 2.3-3.1 4.7-5.4 7.3l-102.1 99.6 23.9 140.6c0 .7.1 1.5.2 2.4.2 1 .2 2.1.2 3.4 0 2-.2 3.7-.7 5.4-.5 1.6-1.2 3.1-2.2 4.4-1 1.6-2.2 2.8-3.7 3.4-1.5.6-3.2 1-5.1 1-1.6 0-3.4-.3-5.4-1-2-.7-3.9-1.5-5.9-2.4l-126.5-66.4L140.3 489c-2 1-3.9 1.8-5.9 2.4-2 .6-3.7 1-5.4 1-2 0-3.7-.3-5.1-1-1.5-.7-2.7-1.8-3.7-3.4-1-1.3-1.7-2.8-2.2-4.4-.5-1.6-.7-3.4-.7-5.4v-2.4c0-.9.2-2.1.5-3.4l23.9-140.6-102.4-99.6c-2.3-2.6-4-5-5.1-7.3-1.1-2.3-1.7-4.4-1.7-6.3 0-3.6 1.3-6.4 3.9-8.5 2.6-2.1 6.5-3.7 11.7-4.6L189.7 185l63.5-127.9c1.6-3.9 3.6-6.8 5.9-8.8 2.3-2 4.9-2.9 7.8-2.9s5.5 1 7.8 2.9c2.3 2 4.2 4.9 5.9 8.8L344.1 185l141.6 20.5c5.2 1 9.1 2.5 11.7 4.6 2.5 2 3.8 4.8 3.8 8.4z"/></svg></svg>
