<?xml version="1.0" encoding="utf-8"?>
<!-- Generator: Adobe Illustrator 16.0.0, SVG Export Plug-In . SVG Version: 6.00 Build 0)  -->
<!DOCTYPE svg PUBLIC "-//W3C//DTD SVG 1.1//EN" "http://www.w3.org/Graphics/SVG/1.1/DTD/svg11.dtd">
<svg version="1.1" id="Capa_2" xmlns="http://www.w3.org/2000/svg" xmlns:xlink="http://www.w3.org/1999/xlink" x="0px" y="0px"
	 width="100px" height="100px" viewBox="0 0 100 100" enable-background="new 0 0 100 100" xml:space="preserve">
<g id="_x37_7-sheets">
	<path fill="#59595C" d="M18.428,68.265c0-0.966,0-1.754,0-1.754s-1.921,0.266-4.58,5.044H5.976
		c-0.146-0.211-0.383-0.636-0.383-1.182c0-0.628,0.223-1.008,0.358-1.181h5.249c1.163,1.089,2.103,1.99,2.103,1.99
		s1.206-2.359,2.833-3.759c1.591-1.368,2.292-1.612,2.292-1.612s0-0.816-0.588-0.839c-0.685-0.027-12.181-0.737-12.181-0.737
		s-1.643-0.103-1.947,0.746H3.396c-0.019,0.002-1.836,0.272-1.836,2.167c0,0.825,0.331,1.333,0.724,1.637
		c-0.386,0.321-0.724,0.835-0.724,1.652c0,0.825,0.331,1.333,0.724,1.637c-0.386,0.322-0.724,0.836-0.724,1.653
		c0,1.63,1.29,2.028,1.8,2.044h15.08V72.48v-0.926v-3.29H18.428z M3.491,72.48h1.4c-0.126,0.303-0.224,0.695-0.224,1.182
		c0,0.496,0.107,0.886,0.234,1.182H3.39c-0.152-0.01-0.902-0.112-0.902-1.119C2.487,72.744,3.274,72.522,3.491,72.48z M3.459,69.191
		h1.431c-0.126,0.304-0.224,0.695-0.224,1.181c0,0.466,0.115,0.864,0.254,1.182H3.765l-0.06,0H3.384
		c-0.15-0.01-0.897-0.106-0.897-1.118C2.487,69.413,3.344,69.215,3.459,69.191z M15.443,73.289c0,0,1.003,1.018,2.025,0.273
		c0.018-0.012,0.028-0.024,0.045-0.037v1.317L5.975,74.844c-0.146-0.211-0.382-0.633-0.382-1.182c0-0.628,0.224-1.008,0.358-1.182
		h8.695L15.443,73.289z M5.951,65.902h1.625c0.661,0.555,1.652,1.456,2.63,2.362l-4.231,0.001c-0.145-0.211-0.383-0.637-0.383-1.182
		C5.593,66.455,5.817,66.075,5.951,65.902z M4.89,65.902c-0.125,0.304-0.224,0.695-0.224,1.181c0,0.466,0.115,0.864,0.254,1.182
		H3.387c-0.15-0.01-0.899-0.11-0.899-1.118c0-0.986,0.787-1.204,1.003-1.245H4.89z"/>
</g>
<g id="_x36_9-bathrobes">
	<path fill="#59595C" d="M51.986,50.541c-2.111,0.185-3.709,0.081-4.218-0.107c-0.01,0.022-0.061,0.219-0.061,0.219
		c-0.824,1.283-0.217,6.093-0.217,6.093c2.212,0.698,4.77,0.034,4.77,0.034s0.183-1.959,0.183-3.211
		c0-1.088-0.399-2.768-0.399-2.768C52.001,50.703,51.99,50.618,51.986,50.541z M53.331,45.588c-0.593-0.655-1.617-0.639-1.617-0.639
		c-0.031-0.814-1.36-0.927-1.875-0.927c-0.515,0-1.285,0.219-1.451,0.413c-0.134,0.157-0.24,0.442-0.248,0.448l-0.278,0.066
		c-1.519,0.235-1.626,1.601-1.626,1.601s-0.243,2.361-0.346,3.171c-0.104,0.81-0.065,2.746-0.065,2.746c0.527,0.132,1.123,0,1.123,0
		s0.032,0.159,0.048-0.301c0.016-0.462,0.107-1.187,0.107-1.187c0.26-1.264,0.184-2.496,0.184-2.496
		c0.104,0.292,0.443,1.357,0.443,1.357c0.133,0.127,0.155,0.239,0.146,0.319c0,0,3.295,0.273,4.238-0.035l0.041-0.227
		c-0.008-0.548,0.513-1.324,0.513-1.324c-0.064,0.553,0.199,2.38,0.249,2.676c0.05,0.296,0.115,1.22,0.115,1.22
		c0.453,0.167,1.123,0,1.123,0l0.03-0.608C54.183,51.862,53.922,46.244,53.331,45.588z M51.295,45.265c0,0-0.025,0.698-0.815,1.768
		c-0.46,0.622-1.096,1.821-1.412,2.641c-0.058,0.151-0.104,0.45-0.227,0.45h0c-0.1,0-0.085-0.208-0.085-0.311
		c-0.003-1.283,0.391-2.391,0.587-2.814l0.511-0.958c0.089-0.151,0.773-1.168,0.506-1.267c-0.545-0.203-1.078,0.002-1.078,0.002
		c-0.126,0.057-0.054,0.436,0.188,0.697c0.12,0.13,0.016,0.321,0.016,0.321l-0.262,0.491c0,0-0.108,0.211-0.257,0.011
		c-0.41-0.551-0.516-1.139-0.504-1.086c0,0-0.181-0.682,0.733-0.909c0,0,1.456-0.311,1.971,0.343
		C51.165,44.645,51.346,44.822,51.295,45.265z"/>
</g>
<g id="_x35_8-bathtub">
	<path fill="#595858" d="M2.263,51.055c0,1.306,0.712,2.442,1.769,3.049l-0.898,0.898c-0.223,0.223-0.223,0.586,0,0.809
		c0.111,0.111,0.257,0.167,0.404,0.167c0.146,0,0.292-0.056,0.404-0.167l1.286-1.287c0.181,0.028,0.364,0.047,0.552,0.047h8.439
		c0.188,0,0.371-0.019,0.552-0.047l1.287,1.287c0.112,0.111,0.257,0.167,0.404,0.167c0.146,0,0.292-0.056,0.404-0.167
		c0.223-0.223,0.223-0.585,0-0.809l-0.899-0.898c1.057-0.607,1.769-1.744,1.769-3.049v-1.406H2.263V51.055z M17.736,47.89H4.021
		v-1.758c0-0.818,0.58-1.143,1.055-1.143c0.631,0,1.142,0.512,1.142,1.143h0.968c0-1.165-0.944-2.109-2.11-2.109
		c-1.165,0-2.111,0.944-2.111,2.109v1.758H2.263c-0.389,0-0.703,0.315-0.703,0.704v0.352h16.88v-0.352
		C18.44,48.205,18.125,47.89,17.736,47.89z"/>
</g>
<g id="_x32_9-beach">
	<path fill="#595858" d="M69.635,53.918c-1.166,0-2.067,0.243-2.465,0.385c-1.045,0.357-1.82,0.934-2.111,1.614
		c-0.123,0.286,0.096,0.605,0.409,0.605h8.335c0.313,0,0.533-0.319,0.41-0.605C73.719,54.77,71.857,53.918,69.635,53.918z
		 M75.125,47.31c-0.026-0.118-0.065-0.24-0.113-0.357c-0.052-0.13-0.114-0.274-0.206-0.425c-0.034-0.056-0.083-0.138-0.14-0.221
		c-0.06-0.08-0.118-0.154-0.18-0.229c-0.057-0.073-0.128-0.141-0.195-0.207l-0.022-0.021c-0.038-0.036-0.077-0.072-0.117-0.109
		c-0.004-0.003-0.007-0.006-0.011-0.009c-0.043-0.034-0.086-0.068-0.132-0.102l-0.032-0.023c-0.033-0.025-0.068-0.051-0.104-0.075
		c-0.046-0.03-0.091-0.058-0.139-0.084l-0.02-0.012l-0.151-0.084c-0.005-0.003-0.011-0.005-0.016-0.008
		c-0.041-0.02-0.083-0.037-0.126-0.056l-0.042-0.018c-0.21-0.092-0.462-0.158-0.744-0.196c-0.022-0.03-0.049-0.058-0.083-0.078
		c-0.059-0.035-0.149-0.085-0.256-0.126c-0.053-0.023-0.113-0.046-0.176-0.067c-0.072-0.021-0.138-0.038-0.205-0.054
		c-0.065-0.018-0.14-0.027-0.206-0.034l-0.02-0.002c-0.038-0.005-0.077-0.009-0.115-0.012c-0.005,0-0.01,0-0.015,0
		c-0.04,0-0.08-0.001-0.12,0h-0.028c-0.03,0-0.061,0-0.092,0.001c-0.04,0.002-0.08,0.007-0.12,0.012l-0.016,0.002l-0.055,0.007
		c-0.002-0.006-0.004-0.012-0.006-0.018l-0.013-0.026c-0.015-0.03-0.029-0.06-0.044-0.088c-0.003-0.006-0.007-0.011-0.011-0.017
		l-0.062-0.1l-0.011-0.018c-0.022-0.033-0.043-0.066-0.066-0.097c-0.021-0.026-0.041-0.051-0.06-0.075l-0.017-0.021
		c-0.026-0.031-0.051-0.061-0.079-0.091c-0.002-0.004-0.006-0.007-0.01-0.011c-0.028-0.027-0.056-0.054-0.083-0.081l-0.015-0.013
		c-0.048-0.045-0.104-0.097-0.167-0.142c-0.049-0.037-0.104-0.076-0.156-0.111c-0.067-0.041-0.123-0.073-0.179-0.101
		c-0.109-0.06-0.221-0.101-0.315-0.133c-0.086-0.03-0.177-0.054-0.269-0.07c-0.145-0.027-0.241-0.03-0.252-0.03
		c-0.033,0-0.066,0.004-0.096,0.016c-0.047,0.018-0.091,0.047-0.123,0.087c-0.03,0.037-0.047,0.081-0.055,0.127
		c-0.08-0.031-0.158-0.059-0.234-0.079l-0.042-0.012c-0.044-0.013-0.088-0.024-0.132-0.036c-0.006-0.001-0.012-0.002-0.019-0.003
		l-0.043-0.007l-0.122-0.021l-0.027-0.004c-0.053-0.008-0.106-0.017-0.158-0.02c-0.045-0.004-0.088-0.005-0.13-0.007l-0.039-0.001
		c-0.055-0.002-0.111-0.003-0.167-0.003c-0.004,0-0.01,0-0.01,0c-0.06,0.003-0.113,0.007-0.165,0.012l-0.029,0.002
		c-0.095,0.009-0.192,0.017-0.291,0.041c-0.047,0.009-0.101,0.021-0.153,0.033c-0.038,0.009-0.075,0.019-0.112,0.027
		c-0.055,0.017-0.098,0.031-0.14,0.045c-0.042,0.014-0.082,0.03-0.122,0.045c-0.16,0.058-0.298,0.131-0.423,0.202
		c-0.11,0.061-0.216,0.131-0.315,0.209c-0.159,0.123-0.247,0.217-0.256,0.228c-0.058,0.063-0.083,0.148-0.069,0.232
		c0.014,0.085,0.065,0.157,0.14,0.198c0.005,0.003,0.121,0.065,0.301,0.138l0.174,0.067l0.123,0.048l0.036,0.013l0.014,0.005
		c0.059,0.022,0.123,0.023,0.183,0.003l0.021-0.007c0.039-0.012,0.097-0.029,0.167-0.045l0.035-0.008
		c0.015-0.004,0.03-0.007,0.045-0.01c-0.001,0.013-0.002,0.025-0.001,0.038c0.003,0.113,0.071,0.214,0.177,0.254l0.027,0.009
		c0.021,0.008,0.041,0.016,0.062,0.023c0.041,0.012,0.073,0.025,0.104,0.037c0.031,0.014,0.061,0.025,0.092,0.036
		c0.026,0.011,0.059,0.023,0.091,0.034h0c0.032,0.014,0.063,0.028,0.095,0.041l0.023,0.009c0.016,0.007,0.031,0.014,0.046,0.019
		c-0.174,0.001-0.357,0.022-0.558,0.068c-0.071,0.018-0.141,0.036-0.21,0.056c-0.004,0.002-0.008,0.003-0.012,0.005
		c-0.281,0.098-0.521,0.219-0.716,0.359l-0.036,0.025c-0.037,0.027-0.075,0.053-0.111,0.08c-0.004,0.004-0.01,0.008-0.014,0.012
		l-0.078,0.068l-0.047,0.043l-0.021,0.018c-0.04,0.037-0.08,0.073-0.116,0.11c-0.032,0.033-0.06,0.065-0.088,0.098l-0.026,0.029
		c-0.036,0.042-0.072,0.084-0.107,0.127c-0.003,0.003-0.007,0.008-0.009,0.012c-0.031,0.043-0.063,0.087-0.091,0.131l-0.017,0.024
		c-0.053,0.078-0.108,0.159-0.153,0.251c-0.041,0.078-0.082,0.163-0.12,0.244c-0.043,0.102-0.074,0.191-0.096,0.259
		c-0.057,0.161-0.088,0.315-0.111,0.456c-0.022,0.123-0.035,0.25-0.037,0.376c-0.005,0.201,0.013,0.329,0.015,0.342
		c0.012,0.084,0.062,0.159,0.136,0.201c0.07,0.04,0.153,0.048,0.229,0.021c0.004-0.001,0.009-0.003,0.012-0.005
		c0.007-0.003,0.127-0.052,0.298-0.147l0.072-0.042l0.205-0.116l0.032-0.019l0.014-0.009c0.054-0.031,0.095-0.081,0.118-0.138
		l0.008-0.022c0.021-0.051,0.049-0.116,0.085-0.188c0.008-0.014,0.015-0.028,0.022-0.042c0.008,0.009,0.018,0.018,0.028,0.025
		c0.076,0.059,0.175,0.077,0.261,0.046c0.017-0.005,0.033-0.014,0.048-0.022l0.026-0.015c0.019-0.011,0.038-0.022,0.056-0.035
		c0.036-0.023,0.065-0.04,0.095-0.055c0.029-0.016,0.059-0.032,0.086-0.049c0.025-0.014,0.054-0.032,0.084-0.051v0
		c0.031-0.016,0.061-0.031,0.091-0.047l0.023-0.013c0.026-0.014,0.053-0.028,0.078-0.043c0.002-0.001,0.011-0.005,0.02-0.009
		c0.02-0.008,0.038-0.018,0.056-0.026c0.038-0.021,0.08-0.054,0.105-0.089l0.013-0.017c0.014-0.019,0.027-0.038,0.041-0.057
		c0.061,0.024,0.13,0.027,0.194,0.005l0.004-0.001l0.042-0.016l0.076-0.029c0.031-0.008,0.061-0.017,0.091-0.025
		c0.047-0.014,0.093-0.027,0.14-0.04c0.021-0.004,0.041-0.008,0.062-0.012c0.099-0.018,0.189-0.034,0.282-0.042
		c0.023-0.002,0.045-0.007,0.068-0.015s0.044-0.019,0.064-0.032c0.04,0.022,0.086,0.036,0.131,0.035c0.045,0,0.09,0,0.137,0.002
		c0.138,0.003,0.272,0.015,0.375,0.025c0.091,0.009,0.176,0.02,0.257,0.031l-0.075,0.104l-0.055,0.074
		c-0.017,0.025-0.032,0.045-0.047,0.066c-0.035,0.046-0.073,0.099-0.11,0.159l-0.013,0.021l-0.132,0.212
		c-0.036,0.058-0.072,0.116-0.109,0.174c-0.074,0.118-0.151,0.239-0.226,0.371l-0.137,0.26l-0.194,0.368
		c-0.077,0.159-0.145,0.316-0.211,0.468c-0.034,0.078-0.068,0.158-0.104,0.237c-0.07,0.172-0.129,0.34-0.187,0.503
		c-0.028,0.083-0.058,0.166-0.088,0.249c-0.002,0.005-0.004,0.01-0.006,0.015c-0.025,0.085-0.049,0.171-0.073,0.257l-0.036,0.126
		c-0.013,0.05-0.024,0.09-0.036,0.132c-0.025,0.087-0.051,0.178-0.068,0.274c-0.013,0.062-0.027,0.128-0.042,0.195
		c-0.039,0.187-0.08,0.381-0.102,0.576l-0.018,0.117c-0.012,0.084-0.023,0.167-0.032,0.248l-0.017,0.222l-0.011,0.136
		c-0.01,0.106-0.012,0.211-0.014,0.313l0,0.038c-0.001,0.04-0.001,0.075-0.002,0.111c-0.001,0.075-0.003,0.147,0,0.219v0.005
		c0.331-0.112,0.818-0.243,1.465-0.323c0-0.01,0-0.021-0.001-0.031l-0.002-0.038c-0.004-0.081-0.007-0.157-0.004-0.233l0.003-0.324
		c0.002-0.058,0.008-0.124,0.012-0.19c0.004-0.041,0.007-0.083,0.01-0.125c0.006-0.153,0.029-0.306,0.052-0.468
		c0.01-0.068,0.02-0.137,0.029-0.207c0.007-0.067,0.022-0.132,0.037-0.201c0.01-0.045,0.021-0.091,0.029-0.137l0.026-0.125
		c0.015-0.071,0.029-0.14,0.045-0.211c0.025-0.084,0.048-0.168,0.073-0.252c0.042-0.15,0.081-0.291,0.126-0.428
		c0.029-0.075,0.058-0.159,0.088-0.241c0.05-0.139,0.099-0.275,0.152-0.406l0.028-0.063l0.239-0.533
		c0.052-0.11,0.113-0.222,0.172-0.33c0.034-0.063,0.068-0.124,0.099-0.183l0.072-0.135l0.052-0.097
		c0.022-0.045,0.047-0.082,0.07-0.116c0.017-0.026,0.033-0.051,0.048-0.077l0.017-0.026l0.188-0.299l0.04-0.061l0.064,0.043
		l0.06,0.041c0.073,0.05,0.15,0.103,0.227,0.161c0.086,0.063,0.194,0.144,0.294,0.229c0.04,0.033,0.073,0.063,0.107,0.094
		c0.035,0.033,0.077,0.055,0.123,0.064c0.01,0.045,0.033,0.088,0.066,0.122c0.063,0.068,0.119,0.141,0.177,0.214
		c0.044,0.055,0.082,0.115,0.12,0.179c0.017,0.026,0.033,0.053,0.049,0.079l0.04,0.075l0.02,0.038
		c0.032,0.062,0.086,0.107,0.149,0.13c-0.002,0.025-0.004,0.047-0.008,0.068l-0.002,0.022c-0.004,0.042,0,0.086,0.016,0.128
		c0.011,0.027,0.019,0.045,0.027,0.065c0.004,0.009,0.009,0.019,0.01,0.028c0.007,0.021,0.017,0.048,0.027,0.077l0.01,0.026
		c0.01,0.031,0.022,0.063,0.035,0.094v0.001c0.01,0.034,0.019,0.068,0.031,0.101c0.007,0.024,0.017,0.055,0.028,0.087
		c0.012,0.031,0.023,0.063,0.031,0.096c0.009,0.031,0.015,0.051,0.021,0.072l0.009,0.028c0.033,0.108,0.13,0.186,0.243,0.194
		c0.013,0,0.026,0,0.039,0c-0.003,0.013-0.007,0.025-0.01,0.039c-0.022,0.082-0.046,0.149-0.066,0.205l-0.005,0.012
		c-0.022,0.059-0.027,0.128-0.008,0.187l0.005,0.016l0.01,0.035l0.101,0.3c0.064,0.188,0.121,0.306,0.123,0.311
		c0.037,0.077,0.107,0.132,0.19,0.151c0.05,0.011,0.102,0.007,0.149-0.01c0.032-0.011,0.061-0.027,0.087-0.048
		c0.01-0.01,0.108-0.093,0.242-0.25c0.08-0.091,0.157-0.193,0.224-0.301c0.076-0.12,0.156-0.253,0.224-0.416
		c0.027-0.061,0.064-0.148,0.099-0.243c0.029-0.095,0.055-0.186,0.079-0.28c0.026-0.089,0.04-0.186,0.053-0.28l0.004-0.029
		c0.007-0.052,0.013-0.104,0.02-0.159c0-0.005,0-0.01,0-0.015c0.002-0.054,0.005-0.11,0.005-0.166l0-0.039
		c0.001-0.042,0.001-0.086,0-0.128c-0.001-0.055-0.006-0.108-0.013-0.163l-0.002-0.022l-0.02-0.171c0-0.006-0.002-0.013-0.003-0.019
		c-0.008-0.044-0.018-0.088-0.028-0.133l-0.01-0.045c-0.05-0.232-0.148-0.483-0.29-0.745c-0.171-0.281-0.341-0.492-0.53-0.656
		c-0.106-0.096-0.221-0.184-0.338-0.259l0.002-0.001c0.023-0.007,0.044-0.018,0.063-0.031c0.019,0.016,0.035,0.031,0.051,0.046
		l0.016,0.014c0.033,0.03,0.07,0.05,0.112,0.061c0.028,0.009,0.049,0.013,0.069,0.018c0.01,0.002,0.02,0.004,0.029,0.007
		c0.021,0.007,0.049,0.017,0.078,0.024l0.026,0.008c0.031,0.009,0.064,0.018,0.097,0.026l0.001,0
		c0.033,0.012,0.066,0.023,0.101,0.034c0.022,0.009,0.053,0.018,0.086,0.027c0.033,0.009,0.064,0.019,0.095,0.031
		s0.051,0.019,0.072,0.026l0.028,0.008c0.06,0.021,0.123,0.02,0.179,0c0.046-0.016,0.088-0.044,0.121-0.083
		c0.008-0.01,0.015-0.021,0.022-0.031c0.009,0.009,0.017,0.021,0.026,0.03c0.053,0.066,0.094,0.124,0.127,0.173l0.008,0.012
		c0.034,0.052,0.086,0.094,0.146,0.115l0.015,0.005l0.035,0.012l0.072,0.022l0.231,0.073c0.188,0.057,0.318,0.081,0.323,0.082
		c0.047,0.009,0.096,0.004,0.14-0.011c0.034-0.012,0.066-0.031,0.093-0.055c0.063-0.057,0.098-0.14,0.09-0.225
		C75.184,47.638,75.174,47.51,75.125,47.31z"/>
</g>
<g id="_x31_5-beach-pool-facilities">
	<path fill="#595858" d="M93.238,44.71c-0.112-0.092-0.226-0.183-0.342-0.27l0,0h-0.001l0,0c-0.118-0.086-0.237-0.168-0.358-0.248
		c-2.612-1.71-5.923-1.64-8.427-0.016c-0.179,0.116-0.195,0.377-0.026,0.508c0.004,0.002,0.007,0.005,0.011,0.008
		c0.025,0.018,0.051,0.036,0.076,0.054c1.042,0.768,1.606,1.941,1.64,3.142c0.001,0.037,0.003,0.074,0.003,0.111
		c0,0.099,0.048,0.184,0.121,0.238l0.002,0.002c0.06,0.043,0.134,0.066,0.214,0.059c0.012-0.001,0.024-0.001,0.036-0.002
		c0.922-0.071,1.863,0.125,2.708,0.604l-1.857,2.519l-2.688,3.646c-0.187,0.254-0.133,0.611,0.121,0.798l0,0
		c0.254,0.188,0.612,0.134,0.799-0.121l2.349-3.186l2.197-2.979c0.707,0.665,1.174,1.507,1.378,2.408
		c0.001,0.012,0.005,0.023,0.008,0.036c0.017,0.078,0.062,0.143,0.121,0.188l0,0c0.074,0.054,0.171,0.075,0.266,0.045
		c0.035-0.01,0.07-0.02,0.106-0.029c1.157-0.323,2.444-0.13,3.486,0.638c0.026,0.019,0.05,0.038,0.075,0.057
		c0.002,0.001,0.003,0.003,0.006,0.004c0.171,0.127,0.42,0.046,0.479-0.161C96.559,49.892,95.647,46.702,93.238,44.71z
		 M92.848,45.832c0.165,1.983-0.404,3.72-0.932,4.854c-0.409-0.932-1.054-1.748-1.886-2.36c-0.831-0.613-1.801-0.99-2.814-1.104
		c0.928-0.839,2.418-1.896,4.364-2.325c0.352-0.077,0.719-0.134,1.101-0.165C92.762,45.105,92.817,45.473,92.848,45.832z"/>
</g>
<g id="_x37_-business-center">
	<path fill="#595858" d="M29.008,49.033l1.069,0.817l0.946-0.817C30.422,48.801,29.008,49.033,29.008,49.033z M30,48.37
		c1.501,0,2.718-1.216,2.718-2.717c0-1.501-1.217-2.718-2.718-2.718c-1.501,0-2.718,1.216-2.718,2.718
		C27.282,47.153,28.499,48.37,30,48.37z M31.822,49.194c-0.129-0.033-1.067,0.811-1.192,1.012c0,0,0.331,0.384,0.332,0.391
		l0.333,3.326c0.001,0.012-1.134,0.915-1.134,0.915c-0.009,0.008-0.021,0.014-0.033,0.014c-0.012,0-0.024-0.005-0.032-0.014
		l-1.109-0.802c-0.009-0.009,0.353-3.431,0.357-3.438l0.304-0.395c-0.124-0.2-1.406-1.027-1.55-0.988
		c-2.183,0.585-3.746,2.198-3.746,4.532c0,2.974,11.298,2.974,11.298,0C35.649,51.385,34.047,49.761,31.822,49.194z M29.872,50.969
		l-0.225,2.725l0.448,0.589l0.534-0.539l-0.309-2.804l-0.182-0.538L29.872,50.969z"/>
</g>
<g id="_x35_2-children-club">
	<path fill="#595858" d="M68.98,30.42h-5.747c-0.198,0-0.36,0.163-0.36,0.361v5.312c0,0.199,0.162,0.36,0.36,0.36h5.745
		c0.199,0,0.361-0.162,0.361-0.36v-5.312C69.34,30.583,69.178,30.42,68.98,30.42z M67.142,35.063h-0.128
		c-0.105,0-0.198-0.068-0.229-0.168l-0.187-0.584c-0.032-0.1-0.124-0.168-0.229-0.168h-0.677c-0.106,0-0.199,0.069-0.23,0.17
		l-0.175,0.579c-0.031,0.101-0.124,0.171-0.23,0.171h-0.104c-0.163,0-0.279-0.159-0.229-0.314l0.886-2.765
		c0.031-0.099,0.124-0.167,0.229-0.167h0.405c0.104,0,0.197,0.067,0.229,0.166l0.898,2.765
		C67.421,34.903,67.306,35.063,67.142,35.063z M66.188,32.896c-0.062-0.198-0.116-0.419-0.164-0.607h-0.009
		c-0.048,0.188-0.096,0.414-0.155,0.607l-0.151,0.486c-0.049,0.156,0.067,0.313,0.229,0.313h0.176c0.163,0,0.279-0.158,0.229-0.313
		L66.188,32.896z M69.325,25.649c-0.037-0.005-0.071-0.01-0.102-0.014c-0.13-0.016-0.248,0.074-0.267,0.204l-0.064,0.423
		c-0.02,0.131,0.07,0.253,0.202,0.273l0.063,0.009c0.405,0.061,0.662-0.095,0.702-0.367C69.905,25.878,69.698,25.705,69.325,25.649z
		 M69.083,26.971l-0.052-0.008c-0.132-0.02-0.254,0.071-0.274,0.202l-0.087,0.586c-0.02,0.128,0.067,0.25,0.196,0.271
		c0.024,0.004,0.05,0.009,0.077,0.013c0.376,0.057,0.731-0.037,0.791-0.432C69.789,27.233,69.488,27.032,69.083,26.971z
		 M77.12,35.028l-0.986-5.219c-0.037-0.195-0.227-0.325-0.421-0.287l-3.724,0.703c0.089-0.054,0.156-0.144,0.173-0.256l0.759-5.257
		c0.028-0.196-0.109-0.38-0.306-0.408l-5.687-0.821c-0.196-0.029-0.379,0.109-0.408,0.306l-0.759,5.257
		c-0.029,0.196,0.109,0.38,0.305,0.408l5.672,0.819l-1.671,0.316c-0.195,0.037-0.324,0.227-0.287,0.421l0.986,5.219
		c0.037,0.195,0.227,0.324,0.421,0.287l5.646-1.066C77.027,35.413,77.157,35.223,77.12,35.028z M70.46,26.199
		c-0.044,0.296-0.271,0.539-0.638,0.615l-0.001,0.01c0.325,0.137,0.595,0.45,0.528,0.893c-0.043,0.286-0.2,0.491-0.409,0.615
		c-0.259,0.166-0.65,0.209-1.236,0.122c-0.197-0.029-0.364-0.063-0.497-0.095c-0.123-0.029-0.202-0.146-0.184-0.27l0.412-2.739
		c0.019-0.121,0.125-0.209,0.248-0.205c0.186,0.006,0.418,0.028,0.645,0.062c0.434,0.065,0.692,0.158,0.888,0.343
		C70.398,25.699,70.501,25.928,70.46,26.199z M74.777,34.375c-0.147,0.072-0.35,0.146-0.59,0.197
		c-1.007,0.216-1.754-0.283-1.963-1.248c-0.224-1.044,0.365-1.831,1.335-2.04c0.223-0.048,0.415-0.061,0.562-0.056
		c0.133,0.004,0.235,0.121,0.228,0.254l-0.001,0.012c-0.007,0.129-0.116,0.231-0.246,0.226c-0.122-0.004-0.262,0.005-0.417,0.038
		c-0.645,0.139-1.024,0.645-0.86,1.407c0.15,0.697,0.656,1.056,1.353,0.906c0.137-0.03,0.274-0.076,0.391-0.129
		c0.123-0.057,0.268-0.003,0.322,0.12C74.944,34.18,74.894,34.318,74.777,34.375z"/>
</g>
<g id="_x36_1-coffe-maker">
	<path fill="#595858" d="M53.523,24.911l-0.17-0.115h-1.066c0.144-0.072,0.244-0.219,0.244-0.391v-0.488
		c0-0.243-0.196-0.439-0.439-0.439h-7.784c-0.243,0-0.439,0.197-0.439,0.439v0.061c0,0.458,0.358,0.834,0.809,0.863
		c-0.255,0.097-0.438,0.341-0.438,0.631c0,0.372,0.302,0.674,0.675,0.674h8.022c1.737,1.236,2.767,3.126,2.767,5.097
		c0,0.372,0.302,0.674,0.676,0.674c0.372,0,0.674-0.302,0.674-0.674C57.054,28.761,55.734,26.394,53.523,24.911z M52.052,26.803
		h-7.221c-0.129,0-0.25,0.056-0.334,0.153c-0.999,1.169-1.55,2.713-1.55,4.344c0,2.042,0.881,3.958,2.356,5.127
		c0.078,0.062,0.174,0.095,0.272,0.095h5.731c0.099,0,0.195-0.033,0.273-0.095c1.475-1.169,2.355-3.085,2.355-5.127
		c0-1.631-0.55-3.175-1.55-4.344C52.303,26.858,52.18,26.803,52.052,26.803z M44.056,30.295c0.154-0.916,0.513-1.763,1.054-2.468
		h6.663c0.541,0.705,0.901,1.553,1.053,2.468H44.056z"/>
</g>
<g id="_x37_3-deep-soaking-bathtub">
	<path fill="#595858" d="M33.733,27.142c0.864-0.001,1.541-0.674,1.545-1.533c0.004-0.856-0.667-1.542-1.525-1.559
		c-0.843-0.018-1.562,0.672-1.576,1.51C32.163,26.44,32.855,27.145,33.733,27.142z M35.237,29.895
		c0.137-0.866-0.044-1.671-0.775-2.054c-0.577-0.301-1.183-0.266-1.704,0.152c-0.614,0.494-0.671,1.162-0.522,1.901H35.237z
		 M28.399,27.339c-0.34,0.871-0.031,1.539,0.83,1.975c-0.583-1.136-0.152-2.003,0.571-2.841c0.29-0.336,0.504-0.769,0.65-1.194
		c0.248-0.725,0.05-1.364-0.543-1.801c0.417,1.071,0.01,1.795-0.62,2.497C28.926,26.374,28.593,26.842,28.399,27.339z M37.48,29.651
		c0-0.124-0.017-0.248-0.027-0.395h-1.101v0.637c0,1.602-0.012,3.205,0.008,4.808c0.005,0.444-0.134,0.644-0.593,0.644
		c-3.85-0.007-7.7-0.006-11.549,0c-0.429,0-0.569-0.183-0.564-0.606c0.019-1.566,0.008-3.132,0.008-4.698v-0.776h-1.127v0.628
		c0,1.566,0.05,3.134-0.015,4.696c-0.057,1.373,0.707,1.94,1.941,1.934c3.702-0.024,7.405-0.008,11.107-0.011
		c0.219-0.001,0.441-0.022,0.657-0.059c0.785-0.138,1.251-0.689,1.254-1.495C37.485,33.188,37.482,31.419,37.48,29.651z
		 M27.135,29.368c-0.731-1.266-0.632-2.036,0.374-3.12c0.274-0.295,0.559-0.601,0.741-0.954c0.134-0.257,0.11-0.598,0.155-0.897
		c-0.51,0.573-0.96,1.059-1.388,1.564c-0.329,0.389-0.713,0.762-0.925,1.213C25.644,28.124,26.222,29.259,27.135,29.368z
		 M35.792,30.338H24.243v4.425h11.549V30.338L35.792,30.338z"/>
</g>
<g id="_x35_-fitness-center">
	<path fill="#5A5A5D" d="M29.912,65.767c-0.644,0.085-1.095,0.672-1.009,1.31c0.086,0.638,0.678,1.086,1.322,1
		c0.644-0.085,1.096-0.671,1.009-1.31C31.148,66.129,30.556,65.68,29.912,65.767z M36.319,63.343l-0.628-0.1
		c-0.524-0.083-1.025,0.273-1.11,0.795l-0.116,0.715c-3.948-0.901-7.749-0.329-8.949-0.104l-0.099-0.611
		c-0.085-0.521-0.585-0.878-1.11-0.795l-0.628,0.1c-0.524,0.085-0.885,0.579-0.8,1.1l0.292,1.796
		c0.085,0.521,0.584,0.878,1.109,0.793l0.628-0.099c0.526-0.085,0.886-0.58,0.801-1.1l-0.061-0.373
		c0.198-0.037,0.481-0.084,0.831-0.135c0.075,1.004,0.396,2.383,1.439,4.379l1.042,1.8c-0.065,0.076-1.713,2.538-1.937,4.314
		c-0.028,0.215,0.139,0.411,0.375,0.449c0.009,0.001,0.02,0.003,0.028,0.004c0.253,0.024,0.48-0.136,0.508-0.362
		c0.165-1.311,1.676-3.03,2.15-3.544c0.513,0.558,1.954,2.227,2.114,3.502c0.019,0.148,0.125,0.268,0.265,0.325
		c0.089,0.059,0.203,0.089,0.321,0.078c0.01-0.001,0.019-0.003,0.029-0.004c0.236-0.038,0.403-0.234,0.375-0.449
		c-0.224-1.776-1.872-4.238-1.937-4.314l1.044-1.8c1.004-1.925,1.337-3.274,1.427-4.268c0.203,0.04,0.405,0.08,0.608,0.127
		l-0.044,0.269c-0.085,0.52,0.276,1.014,0.802,1.1l0.627,0.099c0.525,0.084,1.025-0.273,1.109-0.794l0.292-1.795
		C37.205,63.922,36.845,63.428,36.319,63.343z M32.389,67.383c-0.36,0.54-0.847,0.988-1.481,1.119l-0.042,0.011
		c-0.001,0.001-0.011,0.004-0.025,0.009l-0.569,0.076c-0.053,0.007-0.106,0.012-0.159,0.015c0,0-0.003,0-0.005,0l-0.006,0
		c-0.052-0.003-0.106-0.008-0.158-0.015c-0.033-0.005-0.064-0.004-0.095-0.001c-0.135-0.014-0.264-0.031-0.375-0.049
		c-0.077-0.019-0.125-0.034-0.126-0.035l-0.041-0.011c-1.463-0.306-1.875-2.268-1.99-3.206c1.712-0.248,3.348-0.24,4.659-0.152
		c0.341,0.027,0.682,0.063,1.019,0.107C32.95,65.726,32.809,66.637,32.389,67.383z"/>
</g>
<g id="_x34_5-garden">
	<path fill="#595858" d="M14.345,34.577c0.315-3.019,1.305-5.73,2.75-7.825c-2.394,1.202-4.292,3.348-5.286,5.99
		c0.05-3.449,0.862-6.605,2.221-9.079c-2.035,1.286-3.64,3.311-4.569,5.744c0.112,0.417,0.276,1.101,0.426,2.028
		c0.023,0.149-0.078,0.291-0.227,0.314c-0.015,0.002-0.03,0.004-0.045,0.004c-0.132,0-0.248-0.096-0.271-0.231
		c-0.602-3.73-3.921-4.817-3.921-4.817c0.54,1.804,0.857,3.798,0.898,5.897c-0.832-1.959-2.72-3.56-4.489-4.524
		c0.722,1.324,1.331,2.926,1.774,4.76c-1.047-1.445-2.048-1.814-2.048-1.814s2.159,2.029,2.396,5.315h12.087
		c0.184-2.404,1.267-3.642,2.396-5.378C16.688,31.708,15.249,32.987,14.345,34.577z"/>
</g>
<g id="_x36_2-kitchen-facilities">
	<path fill="#595858" d="M93.191,23.479c-0.241,0-0.437,0.232-0.437,0.518v0.687h-4.615v3.18l-1.523,2.849
		c-0.375,0.702-0.314,1.5,0.136,1.776c0.408,0.25,1.001-0.013,1.387-0.585v1.368c0,1.789,1.235,3.25,2.745,3.25
		c1.51,0,2.745-1.461,2.745-3.25v-9.275C93.628,23.711,93.432,23.479,93.191,23.479z M93.464,24.684h-0.546v-0.529
		c0-0.284,0.123-0.518,0.274-0.518c0.148,0,0.272,0.234,0.272,0.518V24.684z"/>
</g>
<g id="_x32_5-newspaper">
	<path fill="#595858" d="M83.854,8.361L81.56,9.128c0,0,0.504,0.592,0.823,1.527c0.515,1.514,1.222,3.589,1.386,4.065
		c0.301,0.871,0.604,1.579,0.887,1.721c0.4,0.202,0.667-0.694,0.494-1.598C84.977,13.939,83.854,8.361,83.854,8.361z M98.417,11.434
		L96.911,3.53L84.008,5.988c0,0,1.594,8.371,1.75,9.181c0.067,0.354,0.111,0.846-0.232,1.208c2.171-0.736,10.824-2.976,12.2-3.475
		C98.258,12.709,98.522,11.985,98.417,11.434z M85.611,7.055l10.546-2.028l0.203,1.254l-10.49,2.19L85.611,7.055z M86.361,10.643
		l5.509-1.049l0.09,0.473l-5.51,1.049L86.361,10.643z M86.616,11.979l5.509-1.05l0.09,0.473l-5.509,1.05L86.616,11.979z
		 M86.973,13.854l-0.09-0.472l5.51-1.049l0.089,0.472L86.973,13.854z M93.306,12.649l-0.612-3.212l4.11-0.783l0.612,3.211
		L93.306,12.649z"/>
</g>
<g id="_x34_6-nightclub">
	<path fill="#59595C" d="M65.122,14.302c-0.127-0.153-0.229-0.354-0.384-0.657c-0.155,0.303-0.257,0.504-0.384,0.657
		c-0.125,0.154-0.291,0.278-0.54,0.467c0.249,0.188,0.414,0.311,0.54,0.465c0.127,0.152,0.229,0.353,0.384,0.654
		c0.155-0.301,0.256-0.502,0.384-0.654c0.126-0.155,0.291-0.277,0.54-0.465C65.413,14.58,65.248,14.456,65.122,14.302z
		 M68.223,14.187c-0.407-0.063-0.812-0.141-1.211-0.237c-0.218-0.052-0.434-0.109-0.648-0.17c0.438,0.991,1.215,1.799,2.185,2.274
		c-0.001-0.003-0.002-0.006-0.002-0.009C68.4,15.433,68.292,14.812,68.223,14.187z M71.939,9.546
		c-0.031-0.147-0.063-0.293-0.098-0.438c-0.139-0.582-0.315-1.155-0.524-1.716c-0.144-0.023-0.285-0.04-0.439-0.05V3.478h-0.604
		V7.34c-0.154,0.01-0.302,0.027-0.449,0.051c-0.209,0.562-0.386,1.134-0.525,1.716c-0.035,0.146-0.067,0.292-0.098,0.438
		c0.455-0.041,0.912-0.062,1.369-0.062C71.027,9.484,71.484,9.505,71.939,9.546z M68.395,9.639c0.045-0.237,0.096-0.476,0.151-0.711
		c0.104-0.435,0.227-0.866,0.368-1.29c-1.138,0.44-2.059,1.322-2.55,2.434c0.215-0.062,0.43-0.118,0.648-0.17
		C67.468,9.794,67.929,9.706,68.395,9.639z M72.745,9.639c0.465,0.066,0.926,0.155,1.383,0.263c0.217,0.052,0.433,0.108,0.648,0.17
		c-0.491-1.113-1.412-1.994-2.551-2.434c0.142,0.424,0.265,0.855,0.368,1.29C72.649,9.164,72.7,9.402,72.745,9.639z M68.155,13.393
		c-0.018-0.302-0.027-0.604-0.027-0.907c0-0.684,0.046-1.367,0.137-2.045c-0.361,0.057-0.719,0.128-1.075,0.213
		c-0.376,0.09-0.748,0.195-1.116,0.314c-0.065,0.31-0.1,0.63-0.1,0.958c0,0.329,0.035,0.649,0.1,0.958
		c0.368,0.12,0.74,0.224,1.116,0.314C67.51,13.274,67.831,13.338,68.155,13.393z M75.595,7.452c-0.139-0.167-0.25-0.387-0.42-0.718
		c-0.169,0.331-0.28,0.551-0.419,0.718c-0.138,0.17-0.319,0.305-0.59,0.512c0.271,0.205,0.452,0.339,0.59,0.508
		c0.139,0.167,0.25,0.386,0.419,0.716c0.17-0.33,0.281-0.549,0.42-0.716c0.139-0.168,0.318-0.303,0.591-0.508
		C75.913,7.757,75.732,7.622,75.595,7.452z M73.949,10.654c-0.355-0.085-0.714-0.156-1.074-0.213
		c0.091,0.677,0.137,1.361,0.137,2.045c0,0.303-0.009,0.605-0.027,0.907c0.324-0.055,0.645-0.119,0.964-0.195
		c0.376-0.09,0.749-0.195,1.117-0.314c0.065-0.309,0.1-0.629,0.1-0.958c0-0.328-0.035-0.648-0.1-0.958
		C74.698,10.849,74.325,10.744,73.949,10.654z M72.917,14.187c-0.07,0.625-0.177,1.246-0.323,1.858c0,0.003-0.002,0.006-0.002,0.009
		c0.97-0.475,1.747-1.283,2.185-2.274c-0.215,0.061-0.431,0.118-0.648,0.17C73.728,14.045,73.324,14.124,72.917,14.187z
		 M70.569,10.257c-0.504,0-1.007,0.026-1.509,0.079c-0.106,0.711-0.16,1.43-0.16,2.15c0,0.339,0.012,0.678,0.036,1.017
		c0.542,0.062,1.088,0.092,1.633,0.092c0.546,0,1.092-0.031,1.634-0.092c0.024-0.338,0.036-0.677,0.036-1.017
		c0-0.72-0.054-1.438-0.16-2.15C71.578,10.283,71.074,10.257,70.569,10.257z M69.013,14.289c0.066,0.53,0.162,1.057,0.285,1.577
		c0.041,0.172,0.085,0.343,0.133,0.513c0.364,0.093,0.746,0.143,1.139,0.143c0.394,0,0.775-0.05,1.139-0.143
		c0.047-0.171,0.092-0.342,0.133-0.514c0.125-0.521,0.219-1.047,0.285-1.577c-0.517,0.053-1.037,0.079-1.557,0.079
		C70.05,14.368,69.53,14.341,69.013,14.289z"/>
</g>
<g id="_x31_3-restaurant">
	<g>
		<g>
			<path fill="#595858" d="M47.27,12.95l-0.528-0.688l-3.135,3.006c-0.265,0.25-0.271,0.664-0.017,0.921l0.129,0.133
				c0.254,0.258,0.676,0.264,0.939,0.016l3.138-3.007C47.59,13.251,47.405,13.121,47.27,12.95z M50.461,9.923
				c0.993,1.008,2.499,1.164,3.36,0.349l3.313-3.137l-0.613-0.622l-2.767,2.623l-0.005-0.004c-0.003,0.004-0.301,0.32-0.625,0.325
				c-0.139,0.001-0.26-0.054-0.391-0.184c-0.002-0.001-0.019-0.015-0.042-0.037c-0.131-0.134-0.285-0.428,0.163-0.888l2.82-2.671
				l-0.701-0.713L52.41,7.391L52.407,7.38l-0.167,0.166c-0.245,0.24-0.471,0.36-0.672,0.357c-0.157-0.001-0.267-0.08-0.331-0.145
				c-0.021-0.023-0.037-0.042-0.052-0.063c-0.304-0.309-0.114-0.649,0.09-0.874L54.149,4.1l-0.612-0.622l-3.312,3.138
				c-0.419,0.398-0.625,0.962-0.577,1.593C49.697,8.83,49.986,9.438,50.461,9.923z M44.157,4.41
				c-0.227-0.232-0.573-0.243-0.805-0.024c-0.026,0.025-0.05,0.055-0.074,0.087l-0.262,0.358c-0.207,0.281-0.198,0.717,0.018,0.991
				l5.001,6.512c0.219,0.275,0.651,0.366,0.963,0.204l0.313-0.165c0.213-0.11,0.533-0.06,0.699,0.111l3.774,3.838
				c0.254,0.259,0.676,0.265,0.939,0.017l0.135-0.13c0.263-0.248,0.27-0.663,0.016-0.92L44.157,4.41z"/>
		</g>
	</g>
</g>
<g id="_x37_4-safety-box">
	<path fill="#59595C" d="M24.917,11.956V9.142h-1.151v2.813H24.917L24.917,11.956z M25.493,13.768v-1.007
		c0-0.187-0.224-0.345-0.487-0.345h-1.328c-0.264,0-0.487,0.158-0.487,0.345v1.007c0,0.187,0.223,0.346,0.487,0.346h1.328
		C25.269,14.114,25.493,13.955,25.493,13.768z M23.677,8.682h1.328c0.264,0,0.487-0.158,0.487-0.346V7.33
		c0-0.188-0.224-0.345-0.487-0.345h-1.328c-0.264,0-0.487,0.158-0.487,0.345v1.007C23.19,8.524,23.413,8.682,23.677,8.682z
		 M34.641,3.865h-8.707c-1.196,0-2.169,0.973-2.169,2.169v0.49h1.151v-0.49c0-0.562,0.457-1.018,1.017-1.018h8.708
		c0.561,0,1.017,0.456,1.017,1.018v8.707c0,0.561-0.457,1.017-1.017,1.017h-8.707c-0.561,0-1.018-0.456-1.018-1.017v-0.167h-1.151
		v0.167c0,1.195,0.973,2.168,2.169,2.168h8.707c1.195,0,2.168-0.973,2.168-2.168V6.034C36.809,4.838,35.836,3.865,34.641,3.865z
		 M35.043,11.663V9.448c0-0.232-0.188-0.42-0.42-0.42c-0.232,0-0.42,0.188-0.42,0.42v2.215c0,0.232,0.188,0.42,0.42,0.42
		C34.856,12.083,35.043,11.895,35.043,11.663z M33.318,10.317c0-1.795-1.46-3.255-3.255-3.255c-1.794,0-3.255,1.46-3.255,3.255
		s1.46,3.254,3.255,3.254C31.857,13.571,33.318,12.112,33.318,10.317z M30.179,12.993v-0.748c0.495-0.024,0.941-0.236,1.267-0.569
		l0.512,0.534C31.497,12.669,30.872,12.963,30.179,12.993z M32.113,12.039L31.595,11.5c0.229-0.299,0.369-0.667,0.386-1.068h0.759
		C32.713,11.042,32.482,11.601,32.113,12.039z M32.74,10.202h-0.763c-0.026-0.342-0.142-0.658-0.325-0.925l0.554-0.567
		C32.521,9.129,32.716,9.644,32.74,10.202z M30.179,7.64c0.745,0.032,1.413,0.37,1.879,0.891l-0.551,0.563
		c-0.329-0.372-0.8-0.612-1.329-0.638V7.64z M29.948,7.64v0.82c-0.453,0.032-0.86,0.223-1.17,0.517l-0.572-0.589
		C28.662,7.948,29.273,7.668,29.948,7.64z M28.047,8.554l0.573,0.59c-0.24,0.292-0.394,0.657-0.425,1.058h-0.808
		C27.413,9.572,27.658,8.999,28.047,8.554z M27.387,10.432h0.805c0.018,0.43,0.177,0.824,0.435,1.133l-0.589,0.5
		C27.654,11.623,27.413,11.055,27.387,10.432z M29.948,12.993c-0.681-0.028-1.296-0.313-1.754-0.759l0.591-0.502
		c0.308,0.291,0.713,0.479,1.163,0.511V12.993z M29.926,9.634V9.082c0-0.102,0.083-0.184,0.185-0.184
		c0.101,0,0.184,0.083,0.184,0.184v0.552c0,0.102-0.083,0.185-0.184,0.185C30.009,9.819,29.926,9.736,29.926,9.634z"/>
</g>
<g id="_x37_5-separate-bredroom">
	<path fill="#595858" d="M13.313,4.417H6.688c-0.243,0-0.442,0.266-0.442,0.591v11.514h7.51V5.008
		C13.755,4.684,13.556,4.417,13.313,4.417z M7.75,10.854c-0.28,0-0.507-0.227-0.507-0.506S7.47,9.841,7.75,9.841
		s0.506,0.227,0.506,0.506S8.029,10.854,7.75,10.854z M13.959,3.478H6.042c-0.356,0-0.646,0.334-0.646,0.745v12.299h0.234V4.223
		c0-0.282,0.185-0.511,0.413-0.511h7.917c0.227,0,0.412,0.229,0.412,0.511v12.299h0.234V4.223
		C14.605,3.813,14.315,3.478,13.959,3.478z"/>
</g>
<g>
	<path fill="#157AB1" d="M77.215,68.201c0,0.061-0.021,0.125-0.062,0.193c-0.04,0.071-0.096,0.145-0.166,0.225l-3.145,3.066
		l0.736,4.329c0,0.021,0.004,0.046,0.007,0.074c0.006,0.031,0.006,0.065,0.006,0.105c0,0.062-0.006,0.114-0.022,0.167
		c-0.015,0.049-0.036,0.095-0.067,0.135c-0.031,0.049-0.067,0.086-0.114,0.104c-0.047,0.019-0.098,0.031-0.157,0.031
		c-0.05,0-0.104-0.009-0.166-0.031c-0.062-0.021-0.121-0.046-0.182-0.074l-3.895-2.043l-3.886,2.047
		c-0.062,0.031-0.12,0.056-0.182,0.074c-0.062,0.018-0.114,0.031-0.166,0.031c-0.062,0-0.114-0.009-0.157-0.031
		c-0.047-0.021-0.083-0.056-0.114-0.105c-0.031-0.04-0.053-0.086-0.067-0.136c-0.016-0.049-0.021-0.104-0.021-0.166
		c0-0.018,0-0.046,0-0.074c0-0.027,0.005-0.064,0.015-0.104l0.736-4.329l-3.152-3.066c-0.071-0.081-0.124-0.154-0.157-0.225
		c-0.034-0.071-0.052-0.136-0.052-0.194c0-0.11,0.04-0.197,0.12-0.261c0.081-0.065,0.201-0.114,0.361-0.143l4.36-0.63l1.955-3.938
		c0.049-0.12,0.111-0.209,0.182-0.271c0.071-0.062,0.15-0.089,0.24-0.089c0.09,0,0.169,0.031,0.241,0.089
		c0.071,0.062,0.129,0.151,0.182,0.271l1.954,3.938l4.36,0.63c0.16,0.031,0.281,0.078,0.36,0.143
		C77.176,68.003,77.215,68.09,77.215,68.201z"/>
</g>
<g>
	<path fill="#FDBA12" d="M77.215,88.449c0,0.061-0.021,0.125-0.062,0.193c-0.04,0.071-0.096,0.145-0.166,0.225l-3.145,3.066
		l0.736,4.329c0,0.021,0.004,0.046,0.007,0.074c0.006,0.031,0.006,0.065,0.006,0.105c0,0.062-0.006,0.114-0.022,0.167
		c-0.015,0.049-0.036,0.095-0.067,0.135c-0.031,0.049-0.067,0.086-0.114,0.104c-0.047,0.019-0.098,0.031-0.157,0.031
		c-0.05,0-0.104-0.009-0.166-0.031c-0.062-0.021-0.121-0.046-0.182-0.074l-3.895-2.043l-3.886,2.047
		c-0.062,0.031-0.12,0.056-0.182,0.074c-0.062,0.018-0.114,0.031-0.166,0.031c-0.062,0-0.114-0.009-0.157-0.031
		c-0.047-0.021-0.083-0.056-0.114-0.105c-0.031-0.04-0.053-0.086-0.067-0.136c-0.016-0.049-0.021-0.104-0.021-0.166
		c0-0.018,0-0.046,0-0.074c0-0.027,0.005-0.064,0.015-0.104l0.736-4.329l-3.152-3.066c-0.071-0.081-0.124-0.154-0.157-0.225
		c-0.034-0.071-0.052-0.136-0.052-0.194c0-0.11,0.04-0.197,0.12-0.261c0.081-0.065,0.201-0.114,0.361-0.143l4.36-0.63l1.955-3.938
		c0.049-0.12,0.111-0.209,0.182-0.271c0.071-0.062,0.15-0.089,0.24-0.089c0.09,0,0.169,0.031,0.241,0.089
		c0.071,0.062,0.129,0.151,0.182,0.271l1.954,3.938l4.36,0.63c0.16,0.031,0.281,0.078,0.36,0.143
		C77.176,88.251,77.215,88.337,77.215,88.449z"/>
</g>
<g>
	<path fill="#FDBA12" d="M97.215,88.449c0,0.061-0.021,0.125-0.062,0.193c-0.04,0.071-0.096,0.145-0.166,0.225l-3.145,3.066
		l0.736,4.329c0,0.021,0.004,0.046,0.007,0.074c0.006,0.031,0.006,0.065,0.006,0.105c0,0.062-0.006,0.114-0.022,0.167
		c-0.015,0.049-0.036,0.095-0.067,0.135c-0.031,0.049-0.067,0.086-0.114,0.104c-0.047,0.019-0.098,0.031-0.157,0.031
		c-0.05,0-0.104-0.009-0.166-0.031c-0.062-0.021-0.121-0.046-0.182-0.074l-3.895-2.043l-3.886,2.047
		c-0.062,0.031-0.12,0.056-0.182,0.074c-0.062,0.018-0.114,0.031-0.166,0.031c-0.062,0-0.114-0.009-0.157-0.031
		c-0.047-0.021-0.083-0.056-0.114-0.105c-0.031-0.04-0.053-0.086-0.067-0.136c-0.016-0.049-0.021-0.104-0.021-0.166
		c0-0.018,0-0.046,0-0.074c0-0.027,0.005-0.064,0.015-0.104l0.736-4.329l-3.152-3.066c-0.071-0.081-0.124-0.154-0.157-0.225
		c-0.034-0.071-0.052-0.136-0.052-0.194c0-0.11,0.04-0.197,0.12-0.261c0.081-0.065,0.201-0.114,0.361-0.143l4.36-0.63l1.955-3.938
		c0.049-0.12,0.111-0.209,0.182-0.271c0.071-0.062,0.15-0.089,0.24-0.089c0.09,0,0.169,0.031,0.241,0.089
		c0.071,0.062,0.129,0.151,0.182,0.271l1.954,3.938l4.36,0.63c0.16,0.031,0.281,0.078,0.36,0.143
		C97.175,88.251,97.215,88.337,97.215,88.449z"/>
</g>
<g>
	<path fill="#FDBA12" d="M57.215,88.449c0,0.061-0.021,0.125-0.062,0.193c-0.04,0.071-0.096,0.145-0.166,0.225l-3.145,3.066
		l0.736,4.329c0,0.021,0.004,0.046,0.007,0.074c0.006,0.031,0.006,0.065,0.006,0.105c0,0.062-0.006,0.114-0.022,0.167
		c-0.015,0.049-0.036,0.095-0.067,0.135c-0.031,0.049-0.067,0.086-0.114,0.104c-0.047,0.019-0.098,0.031-0.157,0.031
		c-0.05,0-0.104-0.009-0.166-0.031c-0.062-0.021-0.121-0.046-0.182-0.074l-3.895-2.043l-3.886,2.047
		c-0.062,0.031-0.12,0.056-0.182,0.074c-0.062,0.018-0.114,0.031-0.166,0.031c-0.062,0-0.114-0.009-0.157-0.031
		c-0.047-0.021-0.083-0.056-0.114-0.105c-0.031-0.04-0.053-0.086-0.067-0.136c-0.016-0.049-0.021-0.104-0.021-0.166
		c0-0.018,0-0.046,0-0.074c0-0.027,0.005-0.064,0.015-0.104l0.736-4.329l-3.152-3.066c-0.071-0.081-0.124-0.154-0.157-0.225
		c-0.034-0.071-0.052-0.136-0.052-0.194c0-0.11,0.04-0.197,0.12-0.261c0.081-0.065,0.201-0.114,0.361-0.143l4.36-0.63l1.955-3.938
		c0.049-0.12,0.111-0.209,0.182-0.271c0.071-0.062,0.15-0.089,0.24-0.089c0.09,0,0.169,0.031,0.241,0.089
		c0.071,0.062,0.129,0.151,0.182,0.271l1.954,3.938l4.36,0.63c0.16,0.031,0.281,0.078,0.36,0.143
		C57.175,88.251,57.215,88.337,57.215,88.449z"/>
</g>
<g>
	<path fill="#FDBA12" d="M37.215,88.449c0,0.061-0.021,0.125-0.062,0.193c-0.04,0.071-0.096,0.145-0.166,0.225l-3.145,3.066
		l0.736,4.329c0,0.021,0.004,0.046,0.007,0.074c0.006,0.031,0.006,0.065,0.006,0.105c0,0.062-0.006,0.114-0.022,0.167
		c-0.015,0.049-0.036,0.095-0.067,0.135c-0.031,0.049-0.067,0.086-0.114,0.104c-0.047,0.019-0.098,0.031-0.157,0.031
		c-0.05,0-0.104-0.009-0.166-0.031c-0.062-0.021-0.121-0.046-0.182-0.074l-3.895-2.043l-3.886,2.047
		c-0.062,0.031-0.12,0.056-0.182,0.074c-0.062,0.018-0.114,0.031-0.166,0.031c-0.062,0-0.114-0.009-0.157-0.031
		c-0.047-0.021-0.083-0.056-0.114-0.105c-0.031-0.04-0.053-0.086-0.067-0.136c-0.016-0.049-0.021-0.104-0.021-0.166
		c0-0.018,0-0.046,0-0.074c0-0.027,0.005-0.064,0.015-0.104l0.736-4.329l-3.152-3.066c-0.071-0.081-0.124-0.154-0.157-0.225
		c-0.034-0.071-0.052-0.136-0.052-0.194c0-0.11,0.04-0.197,0.12-0.261c0.081-0.065,0.201-0.114,0.361-0.143l4.36-0.63l1.955-3.938
		c0.049-0.12,0.111-0.209,0.182-0.271c0.071-0.062,0.15-0.089,0.24-0.089c0.09,0,0.169,0.031,0.241,0.089
		c0.071,0.062,0.129,0.151,0.182,0.271l1.954,3.938l4.36,0.63c0.16,0.031,0.281,0.078,0.36,0.143
		C37.176,88.251,37.215,88.337,37.215,88.449z"/>
</g>
<g>
	<path fill="#FDBA12" d="M17.215,88.449c0,0.061-0.021,0.125-0.062,0.193c-0.04,0.071-0.096,0.145-0.166,0.225l-3.145,3.066
		l0.736,4.329c0,0.021,0.004,0.046,0.007,0.074c0.006,0.031,0.006,0.065,0.006,0.105c0,0.062-0.006,0.114-0.022,0.167
		c-0.015,0.049-0.036,0.095-0.067,0.135c-0.031,0.049-0.067,0.086-0.114,0.104c-0.047,0.019-0.098,0.031-0.157,0.031
		c-0.05,0-0.104-0.009-0.166-0.031c-0.062-0.021-0.121-0.046-0.182-0.074l-3.895-2.043l-3.886,2.047
		c-0.062,0.031-0.12,0.056-0.182,0.074c-0.062,0.018-0.114,0.031-0.166,0.031c-0.062,0-0.114-0.009-0.157-0.031
		c-0.047-0.021-0.083-0.056-0.114-0.105c-0.031-0.04-0.053-0.086-0.067-0.136c-0.016-0.049-0.021-0.104-0.021-0.166
		c0-0.018,0-0.046,0-0.074c0-0.027,0.005-0.064,0.015-0.104l0.736-4.329l-3.152-3.066c-0.071-0.081-0.124-0.154-0.157-0.225
		c-0.034-0.071-0.052-0.136-0.052-0.194c0-0.11,0.04-0.197,0.12-0.261c0.081-0.065,0.201-0.114,0.361-0.143l4.36-0.63l1.955-3.938
		c0.049-0.12,0.111-0.209,0.182-0.271c0.071-0.062,0.15-0.089,0.24-0.089c0.09,0,0.169,0.031,0.241,0.089
		c0.071,0.062,0.129,0.151,0.182,0.271l1.954,3.938l4.36,0.63c0.16,0.031,0.281,0.078,0.36,0.143
		C17.176,88.251,17.215,88.337,17.215,88.449z"/>
</g>
<g>
	<path fill="#157AB1" d="M52.554,69.557c-0.281,0.653-0.663,1.219-1.143,1.7c-0.48,0.479-1.043,0.862-1.689,1.142
		c-0.646,0.28-1.34,0.421-2.082,0.421c-0.742,0-1.435-0.142-2.081-0.421c-0.647-0.28-1.21-0.663-1.69-1.142
		c-0.48-0.481-0.862-1.047-1.142-1.7c-0.281-0.653-0.422-1.342-0.422-2.075c0-0.742,0.141-1.435,0.422-2.081
		c0.28-0.647,0.662-1.21,1.142-1.69c0.48-0.48,1.043-0.862,1.69-1.142c0.646-0.281,1.339-0.422,2.081-0.422
		c0.742,0,1.436,0.141,2.082,0.422c0.646,0.28,1.209,0.662,1.689,1.142c0.48,0.48,0.862,1.043,1.143,1.69
		c0.28,0.646,0.422,1.339,0.422,2.081C52.976,68.214,52.834,68.907,52.554,69.557z M47.637,71.573c0.561,0,1.09-0.107,1.586-0.323
		c0.496-0.216,0.93-0.508,1.299-0.881c0.369-0.369,0.666-0.803,0.88-1.298c0.215-0.496,0.323-1.026,0.323-1.586
		c0-0.573-0.108-1.105-0.323-1.601c-0.215-0.496-0.508-0.927-0.88-1.293c-0.37-0.367-0.804-0.657-1.299-0.872
		c-0.496-0.215-1.025-0.323-1.586-0.323c-0.56,0-1.089,0.108-1.586,0.323c-0.495,0.215-0.929,0.505-1.299,0.872
		c-0.369,0.366-0.666,0.797-0.881,1.293c-0.215,0.496-0.323,1.028-0.323,1.601c0,0.56,0.108,1.09,0.323,1.586
		c0.216,0.495,0.509,0.93,0.881,1.298c0.37,0.37,0.804,0.666,1.299,0.881C46.547,71.466,47.077,71.573,47.637,71.573z M57.351,75
		c0.231,0.231,0.345,0.511,0.345,0.84s-0.114,0.607-0.345,0.828l-0.345,0.345c-0.231,0.231-0.508,0.345-0.834,0.345
		c-0.326,0-0.604-0.114-0.834-0.345l-4.197-4.208c0.4-0.262,0.767-0.564,1.096-0.909c0.33-0.344,0.616-0.723,0.855-1.136L57.351,75z
		"/>
</g>
</svg>
